<?xml version="1.0" encoding="UTF-8"?>
<svg version="1.1" xmlns="http://www.w3.org/2000/svg" width="1920" height="1080">
<path d="M0 0 C10.951875 -0.0825 21.90375 -0.165 33.1875 -0.25 C38.33508911 -0.30462402 38.33508911 -0.30462402 43.58666992 -0.36035156 C47.84436035 -0.37841797 47.84436035 -0.37841797 49.85054016 -0.3817749 C51.2233553 -0.38783474 52.59615197 -0.40172715 53.96882629 -0.42230225 C65.84767695 -0.59113267 77.84641952 0.39089402 87.34765625 8.28515625 C93.80140476 14.98301817 95.37484068 21.52057286 95.2734375 30.63671875 C94.72367116 37.39884468 92.45873789 42.03248979 87.3125 46.4375 C86.40951172 47.11619141 86.40951172 47.11619141 85.48828125 47.80859375 C83.85115791 48.94871118 83.85115791 48.94871118 83 51 C83.886875 51.2475 84.77375 51.495 85.6875 51.75 C92.45694871 54.30450895 95.69614682 58.81162886 99 65 C101.2082302 71.62469061 101.39898761 82.06633037 98.5625 88.5 C92.7122728 97.74581362 84.10993885 102.04000095 73.7816925 104.53611755 C70.45166247 105.09144223 67.29178703 105.1195236 63.91479492 105.11352539 C63.21042706 105.11364593 62.50605921 105.11376646 61.78034687 105.11389065 C59.51368804 105.11314778 57.24711275 105.10554824 54.98046875 105.09765625 C53.57572469 105.09618489 52.17098007 105.09516537 50.76623535 105.09460449 C45.57331518 105.08937411 40.38040676 105.07541285 35.1875 105.0625 C23.575625 105.041875 11.96375 105.02125 0 105 C0 70.35 0 35.7 0 0 Z M30 22 C30 28.27 30 34.54 30 41 C34.20872148 41.08105241 38.4158763 41.14053316 42.625 41.1875 C43.81480469 41.21263672 45.00460937 41.23777344 46.23046875 41.26367188 C54.58305766 41.46876856 54.58305766 41.46876856 62 38 C64.50031654 34.24952518 64.53603554 32.44143734 64 28 C61.45862841 24.84045695 59.85377341 23.28459114 56 22 C54.0079697 21.91708047 52.01326287 21.89261823 50.01953125 21.90234375 C48.27446289 21.90717773 48.27446289 21.90717773 46.49414062 21.91210938 C44.67172852 21.92467773 44.67172852 21.92467773 42.8125 21.9375 C40.97268555 21.94426758 40.97268555 21.94426758 39.09570312 21.95117188 C36.06378135 21.96296924 33.0318846 21.98090486 30 22 Z M30 63 C30 69.6 30 76.2 30 83 C34.12670505 83.09238892 38.25073905 83.17184732 42.37792969 83.21972656 C43.77844473 83.2397063 45.17887782 83.2669002 46.57910156 83.30175781 C54.58131517 83.49582005 61.17804645 83.65133197 68 79 C69.60964787 75.78070427 69.60686242 72.48112288 69 69 C66.46546343 65.78045355 64.88702695 64.29567565 61 63 C58.64319787 62.91602843 56.28405919 62.89271813 53.92578125 62.90234375 C53.2419487 62.9037587 52.55811615 62.90517365 51.8535614 62.90663147 C49.67316278 62.91222124 47.49286749 62.92477178 45.3125 62.9375 C43.83268378 62.94251633 42.35286594 62.947079 40.87304688 62.95117188 C37.24862624 62.9613357 33.62442856 62.9809129 30 63 Z " fill="#000000" transform="translate(829,489)"/>
<path d="M0 0 C9.24 0 18.48 0 28 0 C29.797156 5.10433323 31.59384948 10.20882465 33.3894043 15.3137207 C33.99916529 17.04688689 34.6091864 18.77996159 35.21948242 20.51293945 C36.10144941 23.01749493 36.98245089 25.52238833 37.86328125 28.02734375 C38.13215652 28.79022202 38.4010318 29.55310028 38.67805481 30.33909607 C40.50613122 35.54183772 42.27077037 40.76359633 44 46 C48.39201081 34.5022156 52.54956456 22.92412839 56.65966797 11.32324219 C57.28639404 9.55835449 57.28639404 9.55835449 57.92578125 7.7578125 C58.48906128 6.16670654 58.48906128 6.16670654 59.0637207 4.54345703 C60 2 60 2 61 0 C69.25 0 77.5 0 86 0 C88.51068812 6.2767203 90.91138864 12.4490374 93.015625 18.8515625 C93.40666412 20.02892471 93.40666412 20.02892471 93.80560303 21.23007202 C94.62326936 23.69410893 95.43671371 26.1595144 96.25 28.625 C96.80961474 30.31389525 97.36950834 32.00269813 97.9296875 33.69140625 C99.28967558 37.79321296 100.64588392 41.89625124 102 46 C103.71217628 43.43173558 104.61467767 41.57114335 105.60400391 38.7121582 C106.05424423 37.42115959 106.05424423 37.42115959 106.51358032 36.1040802 C106.9902565 34.71644722 106.9902565 34.71644722 107.4765625 33.30078125 C107.80667328 32.35059616 108.13678406 31.40041107 108.47689819 30.4214325 C109.53026223 27.38648991 110.57769574 24.34953837 111.625 21.3125 C112.33815202 19.25442223 113.05168899 17.19647781 113.765625 15.13867188 C115.51561632 10.09422015 117.25757547 5.04709588 119 0 C127.58 0 136.16 0 145 0 C143.74701625 5.63842688 142.60731189 10.52620782 140.70922852 15.86157227 C140.37952057 16.79524124 140.37952057 16.79524124 140.04315186 17.74777222 C139.32675665 19.77247199 138.60295127 21.79443091 137.87890625 23.81640625 C137.37284447 25.24153745 136.86723224 26.66682835 136.36204529 28.0922699 C135.03795018 31.82427198 133.70742871 35.55395147 132.37561035 39.28320312 C131.29375141 42.3158514 130.21637403 45.35008205 129.13925266 48.38441563 C126.90421708 54.68054112 124.66618315 60.97560527 122.42016602 67.26782227 C122.02426773 68.37762955 121.62836945 69.48743683 121.22047424 70.63087463 C119.84365632 74.43158752 118.4193835 78.21497734 117 82 C107.43 82 97.86 82 88 82 C85.58122644 76.55775948 83.35222955 71.45426901 81.421875 65.8828125 C81.20557434 65.25897675 80.98927368 64.63514099 80.76641846 63.99240112 C80.31755838 62.69418504 79.87068193 61.39528143 79.42578125 60.09570312 C78.7434122 58.10578875 78.05175573 56.11926257 77.359375 54.1328125 C76.92131916 52.86217066 76.48379917 51.59134392 76.046875 50.3203125 C75.65338867 49.17836426 75.25990234 48.03641602 74.85449219 46.85986328 C74 44 74 44 74 41 C73.34 41 72.68 41 72 41 C71.84942139 41.61206299 71.69884277 42.22412598 71.54370117 42.85473633 C69.35170443 51.34201709 66.37297907 59.48730006 63.3125 67.6875 C62.79579464 69.08252335 62.27951574 70.47770474 61.76367188 71.87304688 C60.51478552 75.25085346 59.25725822 78.62525425 58 82 C48.43 82 38.86 82 29 82 C25.61071434 73.86571442 22.42044575 65.81242255 19.53125 57.5078125 C19.12845825 56.35940887 18.7256665 55.21100525 18.31066895 54.02780151 C17.03714122 50.39468147 15.76841835 46.75990661 14.5 43.125 C13.23296607 39.50469587 11.96494667 35.88473808 10.69677734 32.26483154 C9.8863477 29.95039431 9.07675958 27.63566222 8.26806641 25.32061768 C6.62732256 20.62619977 4.98405852 15.93338887 3.29296875 11.25683594 C3.05259888 10.59199188 2.812229 9.92714783 2.5645752 9.24215698 C1.9662821 7.594965 1.363285 5.94948351 0.75976562 4.30419922 C0 2 0 2 0 0 Z " fill="#000000" transform="translate(1262,512)"/>
<path d="M0 0 C9.796875 -0.0825 19.59375 -0.165 29.6875 -0.25 C34.28691528 -0.30462402 34.28691528 -0.30462402 38.97924805 -0.36035156 C41.44839786 -0.37204957 43.91755547 -0.38223875 46.38671875 -0.390625 C48.26260681 -0.4213208 48.26260681 -0.4213208 50.1763916 -0.45263672 C63.15430982 -0.45770869 76.01301584 2.66853506 85.80859375 11.66015625 C93.12991242 19.67526572 96.61902211 29.94979753 96.24609375 40.80859375 C94.91151152 52.69273074 90.55029167 61.8081177 81.26171875 69.43359375 C69.71233492 77.43238981 57.521236 78.31344246 43.875 78.125 C39.62625 78.08375 35.3775 78.0425 31 78 C31 86.91 31 95.82 31 105 C20.77 105 10.54 105 0 105 C0 70.35 0 35.7 0 0 Z M31 24 C31 33.9 31 43.8 31 54 C33.949375 54.061875 36.89875 54.12375 39.9375 54.1875 C40.84749756 54.21481201 41.75749512 54.24212402 42.69506836 54.27026367 C48.96547622 54.33298798 55.48191441 53.67903985 60.62866211 49.75976562 C63.6581224 46.56257129 64.85815649 43.36870646 65.12890625 39.0859375 C64.89776742 35.34569095 63.97508108 32.19269379 62 29 C57.39078542 25.25501315 53.75884848 23.86844596 47.89453125 23.90234375 C47.00870361 23.90484131 46.12287598 23.90733887 45.21020508 23.90991211 C43.52834106 23.92356812 43.52834106 23.92356812 41.8125 23.9375 C38.244375 23.958125 34.67625 23.97875 31 24 Z " fill="#000000" transform="translate(1460,489)"/>
<path d="M0 0 C-0.38160919 4.49450829 -3.56540916 6.71727419 -6.75 9.5 C-7.53890625 10.20962891 -7.53890625 10.20962891 -8.34375 10.93359375 C-11.47753176 13.73382943 -14.69367879 16.40392557 -18 19 C-20.91275572 17.65614581 -23.2170662 16.09788886 -25.6875 14.0625 C-33.03615623 8.51711181 -40.87651901 6.84350241 -50 8 C-56.80993333 9.82514063 -63.23017568 12.73520428 -67.1796875 18.81640625 C-72.3692009 28.49465935 -73.15505842 37.74230283 -70.03125 48.28515625 C-67.27552148 55.53982035 -62.95544602 59.56691829 -56.1484375 63.08984375 C-47.77446278 66.63736395 -38.88315341 65.65455603 -30.59375 62.35546875 C-26.47684491 60.20401383 -23.23612567 57.30103363 -20 54 C-16.43485124 55.53613553 -13.96129644 57.6838452 -11.125 60.3125 C-7.48959981 63.64674278 -3.8217061 66.8822924 0 70 C-0.7352991 74.80608545 -3.56710348 76.85497263 -7.1328125 79.90234375 C-21.65419514 90.52629808 -38.05152125 93.31021092 -55.6875 91.375 C-70.80192008 88.9592357 -83.30863324 82.24945582 -93.21484375 70.4921875 C-102.73615233 57.19985736 -105.49621966 42.07027372 -103.3125 26.125 C-100.70731251 11.78735976 -92.57525434 -0.33080387 -81 -9 C-54.28925102 -25.36880344 -22.33645339 -21.25739767 0 0 Z " fill="#000000" transform="translate(220,505)"/>
<path d="M0 0 C8.41030366 6.48384094 13.98248075 14.85667535 15.96875 25.2890625 C17.47944317 37.09484987 16.23310632 48.91073365 8.99609375 58.671875 C8.14917969 59.70634766 8.14917969 59.70634766 7.28515625 60.76171875 C6.72054688 61.46167969 6.1559375 62.16164063 5.57421875 62.8828125 C-2.73045858 72.15111273 -14.62727502 76.12174912 -26.765625 76.9765625 C-41.15407106 77.4073543 -54.41652172 74.05903358 -65.02734375 64.07421875 C-74.33027602 54.24553206 -77.2015999 43.50155829 -76.9609375 30.22265625 C-76.1909346 19.39372656 -71.36839538 9.92557031 -63.52734375 2.44921875 C-45.89814593 -12.24177943 -18.86974697 -12.18095861 0 0 Z M-41.71484375 19.76171875 C-46.66142268 26.31259355 -47.50582 31.72012688 -46.71484375 39.76171875 C-45.08493089 45.11208486 -42.46995888 48.71356802 -37.71484375 51.76171875 C-33.11352838 53.29549054 -28.36704883 53.66646707 -23.7109375 52.078125 C-18.38380557 49.30525503 -15.58097571 45.36011462 -13.71484375 39.76171875 C-13.01101214 32.61955868 -13.38247807 26.66822373 -17.71484375 20.76171875 C-22.8068665 16.03341191 -26.15509728 15.4043982 -32.953125 15.484375 C-36.84903411 15.87561905 -38.8610655 17.11675354 -41.71484375 19.76171875 Z " fill="#000000" transform="translate(1245.71484375,519.23828125)"/>
<path d="M0 0 C1.27230469 0.49306641 1.27230469 0.49306641 2.5703125 0.99609375 C13.94042425 6.02050093 20.41054285 14.6738754 25 26 C28.06561174 36.65999882 26.97489769 50.16795367 22 60 C15.17694417 71.24213344 5.4006419 77.2346859 -7 81 C-21.72459565 84.04513889 -36.52074887 82.03682756 -49.2734375 74.01171875 C-57.58402022 67.87998508 -63.79704117 59.19044601 -66 49 C-67.15540411 35.79014529 -66.48304544 23.51704272 -57.7421875 12.90625 C-43.30313705 -2.89253165 -20.11544288 -7.93692395 0 0 Z M-33 26 C-36.71369726 32.00237115 -37.58876081 37.57568585 -36.609375 44.51953125 C-35.1883413 50.30386713 -31.72692589 53.64139476 -27 57 C-23.28795513 58.85602244 -19.0512695 58.44875601 -15 58 C-10.61384189 55.80692094 -7.51154967 53.21581553 -5 49 C-2.91866826 42.17666503 -2.50396036 36.6939245 -5 30 C-7.42231729 25.57300633 -9.50474822 23.2444104 -14 21 C-21.20574701 19.82194872 -28.16268749 20.03398123 -33 26 Z " fill="#000000" transform="translate(1629,514)"/>
<path d="M0 0 C1.27230469 0.49306641 1.27230469 0.49306641 2.5703125 0.99609375 C13.94042425 6.02050093 20.41054285 14.6738754 25 26 C28.06561174 36.65999882 26.97489769 50.16795367 22 60 C15.17694417 71.24213344 5.4006419 77.2346859 -7 81 C-21.72459565 84.04513889 -36.52074887 82.03682756 -49.2734375 74.01171875 C-57.58402022 67.87998508 -63.79704117 59.19044601 -66 49 C-67.15540411 35.79014529 -66.48304544 23.51704272 -57.7421875 12.90625 C-43.30313705 -2.89253165 -20.11544288 -7.93692395 0 0 Z M-33 26 C-36.71369726 32.00237115 -37.58876081 37.57568585 -36.609375 44.51953125 C-35.1883413 50.30386713 -31.72692589 53.64139476 -27 57 C-23.28795513 58.85602244 -19.0512695 58.44875601 -15 58 C-10.61384189 55.80692094 -7.51154967 53.21581553 -5 49 C-2.91866826 42.17666503 -2.50396036 36.6939245 -5 30 C-7.42231729 25.57300633 -9.50474822 23.2444104 -14 21 C-21.20574701 19.82194872 -28.16268749 20.03398123 -33 26 Z " fill="#000000" transform="translate(1004,514)"/>
<path d="M0 0 C8.96346786 6.94325519 12.52043141 16.7616691 14.09765625 27.6953125 C14.42664785 32.28901006 14.5610839 36.30502954 13.09765625 40.6953125 C-6.04234375 40.6953125 -25.18234375 40.6953125 -44.90234375 40.6953125 C-43.41734375 43.1703125 -43.41734375 43.1703125 -41.90234375 45.6953125 C-41.90234375 46.3553125 -41.90234375 47.0153125 -41.90234375 47.6953125 C-34.74422608 51.54968355 -27.98416032 52.7410752 -19.90234375 51.6953125 C-17.10525982 50.59864161 -14.63225703 49.33326047 -12.05859375 47.7890625 C-9.90234375 46.6953125 -9.90234375 46.6953125 -5.90234375 46.6953125 C-4.16308594 47.98046875 -4.16308594 47.98046875 -2.44921875 49.7578125 C-1.83046875 50.38945313 -1.21171875 51.02109375 -0.57421875 51.671875 C0.37710938 52.67347656 0.37710938 52.67347656 1.34765625 53.6953125 C2.3221875 54.69691406 2.3221875 54.69691406 3.31640625 55.71875 C4.91949914 57.36899268 6.51253459 59.02783041 8.09765625 60.6953125 C5.33812819 66.49732078 1.02066429 69.48249372 -4.88671875 71.93359375 C-19.88076039 77.06215277 -36.17765717 77.73930838 -50.98046875 71.37109375 C-62.45910957 65.39655529 -70.32392208 57.62188856 -74.30029297 45.11938477 C-75.27950467 41.17672745 -75.39201433 37.36725866 -75.33984375 33.3203125 C-75.33227051 32.49031738 -75.32469727 31.66032227 -75.31689453 30.80517578 C-75.13924089 24.16456035 -74.05601044 18.6096656 -70.90234375 12.6953125 C-70.26619141 11.50035156 -70.26619141 11.50035156 -69.6171875 10.28125 C-63.3356919 -0.18207693 -53.17296921 -5.87153331 -41.55078125 -8.921875 C-26.33274821 -11.12153169 -12.73113792 -8.73141697 0 0 Z M-42.71484375 17.6328125 C-45.14963032 20.64597266 -45.14963032 20.64597266 -45.90234375 24.6953125 C-35.34234375 24.6953125 -24.78234375 24.6953125 -13.90234375 24.6953125 C-15.61122066 18.94904417 -15.61122066 18.94904417 -19.33984375 15.3828125 C-19.93667969 14.89167969 -20.53351563 14.40054688 -21.1484375 13.89453125 C-28.40613332 8.93214235 -37.2647776 11.48202356 -42.71484375 17.6328125 Z " fill="#000000" transform="translate(366.90234375,520.3046875)"/>
<path d="M0 0 C6.48461049 5.90605788 9.80293199 12.84454047 11.9140625 21.2890625 C11.9140625 27.2290625 11.9140625 33.1690625 11.9140625 39.2890625 C-16.7959375 39.7840625 -16.7959375 39.7840625 -46.0859375 40.2890625 C-42.11371067 46.24740275 -39.89898218 48.88710024 -33.0859375 50.2890625 C-23.43857501 51.22914095 -16.54619971 48.56737277 -8.0859375 44.2890625 C-6.14205054 46.17870145 -4.2059029 48.07530185 -2.2734375 49.9765625 C-1.45262695 50.77223633 -1.45262695 50.77223633 -0.61523438 51.58398438 C2.44523544 54.60735759 4.88163341 57.44527555 6.9140625 61.2890625 C-5.49945186 71.73637009 -17.78684555 75.44389663 -34.06542969 74.47998047 C-48.08014412 73.15572882 -60.22571038 67.77789235 -69.36328125 56.8203125 C-76.4532461 46.40240496 -78.44041374 34.62268388 -76.3984375 22.3515625 C-73.99858036 11.65978517 -68.18621072 2.3302043 -58.99609375 -3.7578125 C-40.20795085 -14.36861899 -17.07271606 -14.00346373 0 0 Z M-45.5859375 17.3515625 C-47.31332608 20.18464535 -47.31332608 20.18464535 -47.0859375 23.2890625 C-36.5259375 23.2890625 -25.9659375 23.2890625 -15.0859375 23.2890625 C-18.03694033 16.40338924 -19.20987656 14.32909457 -25.4609375 11.0390625 C-33.58065925 8.719142 -40.3324833 10.91608111 -45.5859375 17.3515625 Z " fill="#000000" transform="translate(621.0859375,521.7109375)"/>
<path d="M0 0 C0.72058594 0.2784375 1.44117188 0.556875 2.18359375 0.84375 C8.94331884 3.80831752 14.05092288 8.54399237 17.3125 15.1875 C20.82518877 24.34008147 21.29668383 33.96930346 21.1953125 43.671875 C21.1924826 44.72030579 21.18965271 45.76873657 21.18673706 46.84893799 C21.17567322 50.14941545 21.15059568 53.44960661 21.125 56.75 C21.11495233 59.00780854 21.10582964 61.2656214 21.09765625 63.5234375 C21.07749332 69.0158201 21.0383191 74.50759517 21 80 C11.76 80 2.52 80 -7 80 C-7.33 78.02 -7.66 76.04 -8 74 C-9.1446875 75.1446875 -9.1446875 75.1446875 -10.3125 76.3125 C-17.41347787 82.17997467 -27.1627233 82.73534546 -36 82 C-45.26398212 80.91895184 -51.7974413 76.92146616 -57.7734375 69.84375 C-61.8769741 63.67537651 -61.68545563 57.16691587 -61 50 C-59.30688444 43.73445857 -55.30474986 39.55874204 -50 36 C-43.87373668 32.65602684 -38.06587477 31.8719565 -31.16796875 31.90234375 C-29.87568359 31.90556641 -28.58339844 31.90878906 -27.25195312 31.91210938 C-25.89713474 31.92046335 -24.54231703 31.92892828 -23.1875 31.9375 C-21.81315265 31.94252 -20.43880355 31.94708203 -19.06445312 31.95117188 C-15.70959076 31.96294332 -12.35481779 31.97938717 -9 32 C-10.92711719 26.43277257 -12.47611963 23.69909364 -18 21 C-29.10977017 19.30423261 -38.22016251 22.0888794 -48 27 C-49.67333158 23.87852455 -51.33751716 20.75226502 -53 17.625 C-53.47695313 16.73554687 -53.95390625 15.84609375 -54.4453125 14.9296875 C-55.12207031 13.65351562 -55.12207031 13.65351562 -55.8125 12.3515625 C-56.23144531 11.56604004 -56.65039062 10.78051758 -57.08203125 9.97119141 C-58 8 -58 8 -58 6 C-41.49558438 -3.68047454 -18.12806249 -7.41747883 0 0 Z M-31 50 C-32.8175397 52.78518155 -32.8175397 52.78518155 -33 56 C-31.8158809 58.89451336 -30.84124862 60.46878051 -28.1875 62.14453125 C-24.1477981 63.72434324 -20.13409513 63.02864099 -16 62 C-12.94067862 60.24656129 -10.60273483 58.20546965 -9 55 C-8.9310528 53.62657169 -8.91532292 52.24997898 -8.9375 50.875 C-8.958125 49.59625 -8.97875 48.3175 -9 47 C-20.54019332 46.1368356 -20.54019332 46.1368356 -31 50 Z " fill="#000000" transform="translate(746,514)"/>
<path d="M0 0 C7.38656054 6.13156239 9.73176429 13.80539163 11.4140625 23.00390625 C11.76665975 27.19642787 11.76756835 31.34590386 11.70703125 35.55078125 C11.70278641 36.68799622 11.69854156 37.82521118 11.69416809 38.99688721 C11.67754972 42.58281452 11.63992958 46.16815255 11.6015625 49.75390625 C11.58649389 52.20441889 11.57280933 54.65494046 11.56054688 57.10546875 C11.53027007 63.07201707 11.47151544 69.03731224 11.4140625 75.00390625 C2.1740625 75.00390625 -7.0659375 75.00390625 -16.5859375 75.00390625 C-16.9159375 73.02390625 -17.2459375 71.04390625 -17.5859375 69.00390625 C-18.070625 69.41382813 -18.5553125 69.82375 -19.0546875 70.24609375 C-27.4061467 76.9593821 -35.11996486 77.65370904 -45.5859375 77.00390625 C-53.70408264 76.09905805 -59.6412364 72.94860735 -65.3984375 67.19140625 C-69.98286692 60.51123767 -71.69202591 54.11103155 -70.5859375 46.00390625 C-68.76972739 39.29041532 -65.48612161 34.65544814 -59.5859375 31.00390625 C-50.55736058 26.89410799 -42.12809663 26.49803074 -32.3359375 26.75390625 C-30.99351671 26.77403445 -29.65106624 26.79227388 -28.30859375 26.80859375 C-25.06692588 26.85523645 -21.82683694 26.92067493 -18.5859375 27.00390625 C-19.32267599 23.86307376 -20.17223875 20.91107984 -21.5859375 18.00390625 C-28.33976001 14.20789189 -38.55423501 14.98638134 -45.8671875 16.83203125 C-49.92502219 18.29372439 -53.73642924 20.07080672 -57.5859375 22.00390625 C-59.12638641 19.09719663 -60.63971672 16.17719287 -62.1484375 13.25390625 C-62.58607422 12.42890625 -63.02371094 11.60390625 -63.47460938 10.75390625 C-64.08852539 9.55507813 -64.08852539 9.55507813 -64.71484375 8.33203125 C-65.09713135 7.59887695 -65.47941895 6.86572266 -65.87329102 6.11035156 C-66.72022679 3.60697305 -66.57874631 2.4310986 -65.5859375 0.00390625 C-47.9968644 -12.05229337 -17.2780729 -11.92535579 0 0 Z M-40.5859375 45.00390625 C-42.00635571 47.84474266 -41.90046022 49.85867903 -41.5859375 53.00390625 C-39.92190913 55.68082145 -38.5696002 56.73139248 -35.52734375 57.57421875 C-30.36941724 58.39183273 -26.99567275 58.08046573 -22.5859375 55.00390625 C-20.15181141 52.76194801 -18.72927061 51.24766775 -18.34375 47.90234375 C-18.33679668 45.93455355 -18.45283271 43.96720189 -18.5859375 42.00390625 C-30.03613602 41.27848083 -30.03613602 41.27848083 -40.5859375 45.00390625 Z " fill="#000000" transform="translate(456.5859375,518.99609375)"/>
<path d="M0 0 C-0.60063939 4.76849077 -1.9833035 8.9246869 -3.875 13.3125 C-4.13152344 13.94478516 -4.38804688 14.57707031 -4.65234375 15.22851562 C-5.34785683 16.85895207 -6.16691765 18.43538016 -7 20 C-10.65364837 21.21788279 -11.39144599 20.64897183 -14.8125 19.125 C-22.74291213 15.81590717 -32.54073547 14.07625917 -40.87109375 17.01171875 C-41.57363281 17.33785156 -42.27617188 17.66398438 -43 18 C-42.67 19.65 -42.34 21.3 -42 23 C-39.9794858 23.4389715 -37.9585621 23.87605802 -35.9375 24.3125 C-34.02904297 24.72628906 -34.02904297 24.72628906 -32.08203125 25.1484375 C-29.39861899 25.71954085 -26.7123339 26.24352564 -24.01171875 26.7265625 C-12.40410475 28.84976426 -5.00616092 31.11014387 2 41 C4.15364435 47.46093305 4.31319976 56.14188116 1.5 62.4375 C-3.48325741 70.6030481 -11.45576914 75.17636879 -20.453125 77.68359375 C-38.76862174 81.65926295 -57.05230109 78.34206819 -74 71 C-71.76686274 63.55620912 -68.59727921 56.88023305 -65 50 C-62.04376462 50.9708347 -59.10954988 51.95807728 -56.203125 53.0703125 C-49.50057899 55.46407893 -43.43715597 56.37358247 -36.375 56.375 C-35.20179199 56.37717529 -35.20179199 56.37717529 -34.00488281 56.37939453 C-30.1757387 56.30482258 -28.25139819 56.1675988 -25 54 C-25.495 52.02 -25.495 52.02 -26 50 C-26.57331055 49.89453857 -27.14662109 49.78907715 -27.73730469 49.68041992 C-33.29931896 48.65246241 -38.85517522 47.59633377 -44.40576172 46.50830078 C-46.53104111 46.09188523 -48.65788829 45.6834785 -50.78515625 45.27734375 C-58.68423355 43.57522 -64.72159853 40.55909213 -69.4375 33.8125 C-72.98772984 27.42208629 -73.15801475 19.71030324 -71.421875 12.6484375 C-68.48853555 5.9550902 -62.68604923 0.77154998 -56.1796875 -2.35546875 C-39.00275053 -8.8377733 -16.51212386 -8.25606193 0 0 Z " fill="#000000" transform="translate(1735,517)"/>
<path d="M0 0 C9.9 0 19.8 0 30 0 C30 6.93 30 13.86 30 21 C35.94 21 41.88 21 48 21 C48 28.26 48 35.52 48 43 C42.06 43 36.12 43 30 43 C30.096956 47.36046831 30.19969259 51.71998999 30.31738281 56.07983398 C30.35565347 57.56282212 30.39050978 59.04590248 30.421875 60.52905273 C30.467568 62.66163072 30.52555338 64.79357491 30.5859375 66.92578125 C30.6173584 68.20880127 30.6487793 69.49182129 30.68115234 70.8137207 C30.76379228 74.15387459 30.76379228 74.15387459 33 77 C38.56666169 78.20611003 41.6007404 77.99772605 47 76 C48.23331876 79.07391974 49.432125 82.16018467 50.625 85.25 C50.975625 86.12269531 51.32625 86.99539063 51.6875 87.89453125 C52.00976562 88.73886719 52.33203125 89.58320312 52.6640625 90.453125 C52.96779785 91.22817383 53.2715332 92.00322266 53.58447266 92.80175781 C54 95 54 95 53.23120117 97.21875 C50.93737459 100.53736168 47.17341205 100.64421532 43.421875 101.4609375 C31.12708403 103.39778813 19.20153673 102.17846407 8.94140625 94.7265625 C3.22088776 89.63909938 0.97789198 83.50217708 0 76 C-0.2338599 70.30916656 -0.18950431 64.63152697 -0.125 58.9375 C-0.11495008 57.38867766 -0.10582779 55.83984901 -0.09765625 54.29101562 C-0.07580207 50.52718572 -0.04138343 46.76366377 0 43 C-3.96 43 -7.92 43 -12 43 C-12 35.74 -12 28.48 -12 21 C-8.04 21 -4.08 21 0 21 C0 14.07 0 7.14 0 0 Z " fill="#000000" transform="translate(488,494)"/>
<path d="M0 0 C9.57 0 19.14 0 29 0 C29 6.93 29 13.86 29 21 C35.27 21 41.54 21 48 21 C48 28.26 48 35.52 48 43 C41.73 43 35.46 43 29 43 C29.08716233 47.35511096 29.19409218 51.70822012 29.3125 56.0625 C29.34633789 57.90618164 29.34633789 57.90618164 29.38085938 59.78710938 C29.59335227 68.8212988 29.59335227 68.8212988 33 77 C38.58806719 78.82686812 41.08312917 77.69053452 47 76 C49.31 82.93 51.62 89.86 54 97 C43.18859614 102.40570193 32.01342775 103.87898928 20.125 100.75390625 C12.50829076 98.05165463 6.66696943 94.17776769 2.92016602 86.90356445 C-0.83986197 77.95619657 -0.45483361 69.32663487 -0.25 59.8125 C-0.22989199 58.1764543 -0.21164887 56.54038458 -0.1953125 54.90429688 C-0.15168487 50.93559378 -0.0829006 46.96806902 0 43 C-3.96 43 -7.92 43 -12 43 C-12 35.74 -12 28.48 -12 21 C-8.04 21 -4.08 21 0 21 C0 14.07 0 7.14 0 0 Z " fill="#000000" transform="translate(1753,494)"/>
<path d="M0 0 C0 8.58 0 17.16 0 26 C-3.96 26.33 -7.92 26.66 -12 27 C-15.93538426 28.36216736 -15.93538426 28.36216736 -19 30 C-19.99 30.33 -20.98 30.66 -22 31 C-25.25877335 36.96590096 -25.46429754 43.64966279 -25.51171875 50.28515625 C-25.52966995 51.22685165 -25.54762115 52.16854706 -25.56611633 53.13877869 C-25.61981099 56.11330842 -25.65398296 59.08768153 -25.6875 62.0625 C-25.72070919 64.09312057 -25.75520213 66.12372057 -25.79101562 68.15429688 C-25.87790381 73.10288203 -25.93832087 78.05078133 -26 83 C-35.9 83 -45.8 83 -56 83 C-56 55.94 -56 28.88 -56 1 C-46.43 1 -36.86 1 -27 1 C-26.67 3.31 -26.34 5.62 -26 8 C-25.443125 7.59007812 -24.88625 7.18015625 -24.3125 6.7578125 C-15.83940986 0.77512386 -10.72010394 0 0 0 Z " fill="#000000" transform="translate(1098,511)"/>
<path d="M0 0 C0 8.58 0 17.16 0 26 C-7.625 26.75 -7.625 26.75 -9.99072266 26.95605469 C-14.89911682 27.50683159 -18.20037341 28.63493481 -22 32 C-25.15240551 37.79204484 -25.4667572 42.79072849 -25.51171875 49.30859375 C-25.52966995 50.27531509 -25.54762115 51.24203644 -25.56611633 52.23805237 C-25.61999511 55.30449147 -25.65404309 58.37077692 -25.6875 61.4375 C-25.72069286 63.5254119 -25.75518433 65.61330359 -25.79101562 67.70117188 C-25.87813682 72.80080063 -25.93839758 77.89974467 -26 83 C-35.9 83 -45.8 83 -56 83 C-56 55.94 -56 28.88 -56 1 C-46.76 1 -37.52 1 -28 1 C-27.67 3.64 -27.34 6.28 -27 9 C-26.154375 8.236875 -25.30875 7.47375 -24.4375 6.6875 C-16.85451692 0.3743089 -9.57972982 0 0 0 Z " fill="#000000" transform="translate(287,511)"/>
<path d="M0 0 C0 8.58 0 17.16 0 26 C-3.96 26.33 -7.92 26.66 -12 27 C-18.0537055 29.27013956 -20.93734552 31.11970339 -24 37 C-24.85675239 39.81004589 -25.14352832 42.37877163 -25.20532227 45.30957031 C-25.22526749 46.15013977 -25.24521271 46.99070923 -25.26576233 47.85675049 C-25.29083107 49.20383087 -25.29083107 49.20383087 -25.31640625 50.578125 C-25.33718735 51.5046991 -25.35796844 52.43127319 -25.37937927 53.38592529 C-25.44466961 56.34054272 -25.50366431 59.29524768 -25.5625 62.25 C-25.60570473 64.25521732 -25.64931965 66.26042585 -25.69335938 68.265625 C-25.80110052 73.17699499 -25.90032658 78.08843313 -26 83 C-35.57 83 -45.14 83 -55 83 C-55 55.94 -55 28.88 -55 1 C-45.76 1 -36.52 1 -27 1 C-26.67 3.31 -26.34 5.62 -26 8 C-25.05125 7.236875 -24.1025 6.47375 -23.125 5.6875 C-15.70818241 0.42395203 -9.04406384 0 0 0 Z " fill="#000000" transform="translate(1164,511)"/>
</svg>
