<?xml version="1.0" encoding="UTF-8"?>
<svg version="1.1" xmlns="http://www.w3.org/2000/svg" width="1920" height="1080">
<path d="M0 0 C9.9 0 19.8 0 30 0 C30 36.96 30 73.92 30 112 C20.76 112 11.52 112 2 112 C1.67 110.35 1.34 108.7 1 107 C0.236875 107.598125 -0.52625 108.19625 -1.3125 108.8125 C-10.09808708 114.59411586 -21.29478627 115.37682463 -31.3671875 113.30859375 C-42.49333041 110.23798387 -50.24545673 104.36050897 -57 95 C-62.85750621 83.50443305 -64.28029823 68.95697877 -60.875 56.4375 C-56.66079971 45.18656529 -50.16922733 37.22839386 -39.25 32.125 C-29.36239987 27.8592068 -17.84628088 27.23324562 -7.625 30.875 C-4.77691663 32.036605 -3.18465028 32.81534972 -1 35 C-0.67 23.45 -0.34 11.9 0 0 Z M-28.75 59 C-32.91007287 64.54676383 -32.61163691 70.29747888 -32 77 C-30.40848617 82.37135919 -27.75800195 85.94999875 -23 89 C-18.38741035 90.53752988 -13.67948401 90.86704551 -8.99609375 89.3515625 C-3.57968404 86.61411137 -1.35786445 82.62097187 0.75 77 C1.52164288 70.82685699 1.38042035 64.66736139 -2.10546875 59.296875 C-4.43699162 56.34122139 -6.51222555 54.36505356 -10 53 C-18.05550027 52.07559833 -23.30439086 52.81600318 -28.75 59 Z " fill="#000000" transform="translate(1273,482)"/>
<path d="M0 0 C9.796875 -0.0825 19.59375 -0.165 29.6875 -0.25 C34.28691528 -0.30462402 34.28691528 -0.30462402 38.97924805 -0.36035156 C41.44839786 -0.37204957 43.91755547 -0.38223875 46.38671875 -0.390625 C48.26260681 -0.4213208 48.26260681 -0.4213208 50.1763916 -0.45263672 C63.15430982 -0.45770869 76.01301584 2.66853506 85.80859375 11.66015625 C93.12991242 19.67526572 96.61902211 29.94979753 96.24609375 40.80859375 C94.91151152 52.69273074 90.55029167 61.8081177 81.26171875 69.43359375 C69.71233492 77.43238981 57.521236 78.31344246 43.875 78.125 C39.62625 78.08375 35.3775 78.0425 31 78 C31 86.91 31 95.82 31 105 C20.77 105 10.54 105 0 105 C0 70.35 0 35.7 0 0 Z M31 24 C31 33.9 31 43.8 31 54 C33.949375 54.061875 36.89875 54.12375 39.9375 54.1875 C40.84749756 54.21481201 41.75749512 54.24212402 42.69506836 54.27026367 C48.96547622 54.33298798 55.48191441 53.67903985 60.62866211 49.75976562 C63.6581224 46.56257129 64.85815649 43.36870646 65.12890625 39.0859375 C64.89776742 35.34569095 63.97508108 32.19269379 62 29 C57.39078542 25.25501315 53.75884848 23.86844596 47.89453125 23.90234375 C47.00870361 23.90484131 46.12287598 23.90733887 45.21020508 23.90991211 C43.52834106 23.92356812 43.52834106 23.92356812 41.8125 23.9375 C38.244375 23.958125 34.67625 23.97875 31 24 Z " fill="#000000" transform="translate(1365,489)"/>
<path d="M0 0 C0.61746094 0.59167969 1.23492187 1.18335938 1.87109375 1.79296875 C1.2939636 5.11101762 0.34053803 6.6751952 -2.11328125 8.95703125 C-2.71914063 9.52164063 -3.325 10.08625 -3.94921875 10.66796875 C-4.90441406 11.53421875 -4.90441406 11.53421875 -5.87890625 12.41796875 C-6.50023437 13.00320313 -7.1215625 13.5884375 -7.76171875 14.19140625 C-11.03008854 17.19775484 -13.77693513 19.51395434 -18.12890625 20.79296875 C-18.63679688 20.32246094 -19.1446875 19.85195313 -19.66796875 19.3671875 C-27.39650656 12.37676847 -33.92282195 9.3868235 -44.3671875 9.51171875 C-50.5479795 10.14116291 -56.11709911 12.21851099 -61.00390625 16.04296875 C-68.56167295 25.82360801 -70.04392205 33.45905714 -69.12890625 45.79296875 C-67.73402168 51.40141656 -65.42153235 56.83923419 -61.12890625 60.79296875 C-52.25217989 66.00322118 -43.76188033 68.65357624 -33.46875 66.14453125 C-27.26178069 63.89966136 -22.78031742 60.41839438 -18.12890625 55.79296875 C-14.28028778 57.09803661 -12.01935916 58.5824424 -9.25390625 61.54296875 C-5.72199956 65.22259777 -2.04614635 68.528602 1.87109375 71.79296875 C1.13579465 76.5990542 -1.69600973 78.64794138 -5.26171875 81.6953125 C-19.57929221 92.17015848 -36.01520268 95.27176248 -53.44140625 93.10546875 C-67.76259117 90.65087292 -82.11487385 84.1163247 -91.0390625 72.25390625 C-100.92705909 57.34843369 -103.51540225 41.47100009 -100.4453125 23.875 C-96.29768951 9.4701849 -87.8894203 -1.51400192 -75.12890625 -9.20703125 C-50.1854009 -22.35527677 -20.69980844 -19.3135199 0 0 Z " fill="#000000" transform="translate(313.12890625,503.20703125)"/>
<path d="M0 0 C5.92053368 6.54102629 8.92181929 14.97049316 8.90258789 23.66308594 C8.90247459 25.37440704 8.90247459 25.37440704 8.90235901 27.12030029 C8.89719772 28.34646057 8.89203644 29.57262085 8.88671875 30.8359375 C8.8853038 32.09545227 8.88388885 33.35496704 8.88243103 34.65264893 C8.87778323 37.99321369 8.86880531 41.33370971 8.85772705 44.67425537 C8.84747848 48.08621619 8.84287117 51.49818434 8.83789062 54.91015625 C8.82771284 61.59899697 8.80813715 68.28771753 8.7890625 74.9765625 C-0.7809375 74.9765625 -10.3509375 74.9765625 -20.2109375 74.9765625 C-20.24832031 71.66496094 -20.28570313 68.35335937 -20.32421875 64.94140625 C-20.37047861 61.72104425 -20.42169615 58.50079642 -20.47338867 55.28051758 C-20.50656718 53.04881779 -20.53462098 50.81703552 -20.55737305 48.58520508 C-20.59104876 45.37024916 -20.64337235 42.1560443 -20.69921875 38.94140625 C-20.70560867 37.94946762 -20.7119986 36.95752899 -20.71858215 35.93553162 C-20.83923204 30.20329621 -21.44543687 26.0359182 -24.2109375 20.9765625 C-27.56095583 18.0094034 -30.68606411 17.43472018 -35.15234375 17.62890625 C-38.92855568 18.26663464 -41.11844936 19.67235565 -44.2109375 21.9765625 C-48.38439789 28.51498377 -48.38672097 35.13934199 -48.52734375 42.65234375 C-48.54812485 43.5775029 -48.56890594 44.50266205 -48.59031677 45.45585632 C-48.6555031 48.40018557 -48.71455308 51.34460115 -48.7734375 54.2890625 C-48.81665214 56.28972233 -48.86026736 58.29037356 -48.90429688 60.29101562 C-49.0119037 65.18611086 -49.11120689 70.08127514 -49.2109375 74.9765625 C-58.7809375 74.9765625 -68.3509375 74.9765625 -78.2109375 74.9765625 C-78.2109375 47.9165625 -78.2109375 20.8565625 -78.2109375 -7.0234375 C-68.9709375 -7.0234375 -59.7309375 -7.0234375 -50.2109375 -7.0234375 C-49.8809375 -4.7134375 -49.5509375 -2.4034375 -49.2109375 -0.0234375 C-48.6540625 -0.43335938 -48.0971875 -0.84328125 -47.5234375 -1.265625 C-33.31074547 -11.30093795 -13.82642481 -11.09527917 0 0 Z " fill="#000000" transform="translate(1188.2109375,519.0234375)"/>
<path d="M0 0 C1.27230469 0.49306641 1.27230469 0.49306641 2.5703125 0.99609375 C13.94042425 6.02050093 20.41054285 14.6738754 25 26 C28.06561174 36.65999882 26.97489769 50.16795367 22 60 C15.17694417 71.24213344 5.4006419 77.2346859 -7 81 C-21.72459565 84.04513889 -36.52074887 82.03682756 -49.2734375 74.01171875 C-57.58402022 67.87998508 -63.79704117 59.19044601 -66 49 C-67.15540411 35.79014529 -66.48304544 23.51704272 -57.7421875 12.90625 C-43.30313705 -2.89253165 -20.11544288 -7.93692395 0 0 Z M-33 26 C-36.71369726 32.00237115 -37.58876081 37.57568585 -36.609375 44.51953125 C-35.1883413 50.30386713 -31.72692589 53.64139476 -27 57 C-23.28795513 58.85602244 -19.0512695 58.44875601 -15 58 C-10.61384189 55.80692094 -7.51154967 53.21581553 -5 49 C-2.91866826 42.17666503 -2.50396036 36.6939245 -5 30 C-7.42231729 25.57300633 -9.50474822 23.2444104 -14 21 C-21.20574701 19.82194872 -28.16268749 20.03398123 -33 26 Z " fill="#000000" transform="translate(1534,514)"/>
<path d="M0 0 C8.96346786 6.94325519 12.52043141 16.7616691 14.09765625 27.6953125 C14.42664785 32.28901006 14.5610839 36.30502954 13.09765625 40.6953125 C-6.04234375 40.6953125 -25.18234375 40.6953125 -44.90234375 40.6953125 C-43.41734375 43.1703125 -43.41734375 43.1703125 -41.90234375 45.6953125 C-41.90234375 46.3553125 -41.90234375 47.0153125 -41.90234375 47.6953125 C-34.74422608 51.54968355 -27.98416032 52.7410752 -19.90234375 51.6953125 C-17.10525982 50.59864161 -14.63225703 49.33326047 -12.05859375 47.7890625 C-9.90234375 46.6953125 -9.90234375 46.6953125 -5.90234375 46.6953125 C-4.16308594 47.98046875 -4.16308594 47.98046875 -2.44921875 49.7578125 C-1.83046875 50.38945313 -1.21171875 51.02109375 -0.57421875 51.671875 C0.37710937 52.67347656 0.37710937 52.67347656 1.34765625 53.6953125 C2.3221875 54.69691406 2.3221875 54.69691406 3.31640625 55.71875 C4.91949914 57.36899268 6.51253459 59.02783041 8.09765625 60.6953125 C5.33812819 66.49732078 1.02066429 69.48249372 -4.88671875 71.93359375 C-19.88076039 77.06215277 -36.17765717 77.73930838 -50.98046875 71.37109375 C-62.45910957 65.39655529 -70.32392208 57.62188856 -74.30029297 45.11938477 C-75.27950467 41.17672745 -75.39201433 37.36725866 -75.33984375 33.3203125 C-75.33227051 32.49031738 -75.32469727 31.66032227 -75.31689453 30.80517578 C-75.13924089 24.16456035 -74.05601044 18.6096656 -70.90234375 12.6953125 C-70.26619141 11.50035156 -70.26619141 11.50035156 -69.6171875 10.28125 C-63.3356919 -0.18207693 -53.17296921 -5.87153331 -41.55078125 -8.921875 C-26.33274821 -11.12153169 -12.73113792 -8.73141697 0 0 Z M-42.71484375 17.6328125 C-45.14963032 20.64597266 -45.14963032 20.64597266 -45.90234375 24.6953125 C-35.34234375 24.6953125 -24.78234375 24.6953125 -13.90234375 24.6953125 C-15.61122066 18.94904417 -15.61122066 18.94904417 -19.33984375 15.3828125 C-19.93667969 14.89167969 -20.53351563 14.40054688 -21.1484375 13.89453125 C-28.40613332 8.93214235 -37.2647776 11.48202356 -42.71484375 17.6328125 Z " fill="#000000" transform="translate(1083.90234375,520.3046875)"/>
<path d="M0 0 C8.96346786 6.94325519 12.52043141 16.7616691 14.09765625 27.6953125 C14.42664785 32.28901006 14.5610839 36.30502954 13.09765625 40.6953125 C-6.04234375 40.6953125 -25.18234375 40.6953125 -44.90234375 40.6953125 C-43.41734375 43.1703125 -43.41734375 43.1703125 -41.90234375 45.6953125 C-41.90234375 46.3553125 -41.90234375 47.0153125 -41.90234375 47.6953125 C-34.74422608 51.54968355 -27.98416032 52.7410752 -19.90234375 51.6953125 C-17.10525982 50.59864161 -14.63225703 49.33326047 -12.05859375 47.7890625 C-9.90234375 46.6953125 -9.90234375 46.6953125 -5.90234375 46.6953125 C-4.16308594 47.98046875 -4.16308594 47.98046875 -2.44921875 49.7578125 C-1.83046875 50.38945313 -1.21171875 51.02109375 -0.57421875 51.671875 C0.37710938 52.67347656 0.37710938 52.67347656 1.34765625 53.6953125 C2.3221875 54.69691406 2.3221875 54.69691406 3.31640625 55.71875 C4.91949914 57.36899268 6.51253459 59.02783041 8.09765625 60.6953125 C5.33812819 66.49732078 1.02066429 69.48249372 -4.88671875 71.93359375 C-19.88076039 77.06215277 -36.17765717 77.73930838 -50.98046875 71.37109375 C-62.45910957 65.39655529 -70.32392208 57.62188856 -74.30029297 45.11938477 C-75.27950467 41.17672745 -75.39201433 37.36725866 -75.33984375 33.3203125 C-75.33227051 32.49031738 -75.32469727 31.66032227 -75.31689453 30.80517578 C-75.13924089 24.16456035 -74.05601044 18.6096656 -70.90234375 12.6953125 C-70.26619141 11.50035156 -70.26619141 11.50035156 -69.6171875 10.28125 C-63.3356919 -0.18207693 -53.17296921 -5.87153331 -41.55078125 -8.921875 C-26.33274821 -11.12153169 -12.73113792 -8.73141697 0 0 Z M-42.71484375 17.6328125 C-45.14963032 20.64597266 -45.14963032 20.64597266 -45.90234375 24.6953125 C-35.34234375 24.6953125 -24.78234375 24.6953125 -13.90234375 24.6953125 C-15.61122066 18.94904417 -15.61122066 18.94904417 -19.33984375 15.3828125 C-19.93667969 14.89167969 -20.53351562 14.40054688 -21.1484375 13.89453125 C-28.40613332 8.93214235 -37.2647776 11.48202356 -42.71484375 17.6328125 Z " fill="#000000" transform="translate(714.90234375,520.3046875)"/>
<path d="M0 0 C8.96346786 6.94325519 12.52043141 16.7616691 14.09765625 27.6953125 C14.42664785 32.28901006 14.5610839 36.30502954 13.09765625 40.6953125 C-6.04234375 40.6953125 -25.18234375 40.6953125 -44.90234375 40.6953125 C-43.41734375 43.1703125 -43.41734375 43.1703125 -41.90234375 45.6953125 C-41.90234375 46.3553125 -41.90234375 47.0153125 -41.90234375 47.6953125 C-34.74422608 51.54968355 -27.98416032 52.7410752 -19.90234375 51.6953125 C-17.10525982 50.59864161 -14.63225703 49.33326047 -12.05859375 47.7890625 C-9.90234375 46.6953125 -9.90234375 46.6953125 -5.90234375 46.6953125 C-4.16308594 47.98046875 -4.16308594 47.98046875 -2.44921875 49.7578125 C-1.83046875 50.38945313 -1.21171875 51.02109375 -0.57421875 51.671875 C0.37710938 52.67347656 0.37710938 52.67347656 1.34765625 53.6953125 C2.3221875 54.69691406 2.3221875 54.69691406 3.31640625 55.71875 C4.91949914 57.36899268 6.51253459 59.02783041 8.09765625 60.6953125 C5.33812819 66.49732078 1.02066429 69.48249372 -4.88671875 71.93359375 C-19.88076039 77.06215277 -36.17765717 77.73930838 -50.98046875 71.37109375 C-62.45910957 65.39655529 -70.32392208 57.62188856 -74.30029297 45.11938477 C-75.27950467 41.17672745 -75.39201433 37.36725866 -75.33984375 33.3203125 C-75.33227051 32.49031738 -75.32469727 31.66032227 -75.31689453 30.80517578 C-75.13924089 24.16456035 -74.05601044 18.6096656 -70.90234375 12.6953125 C-70.26619141 11.50035156 -70.26619141 11.50035156 -69.6171875 10.28125 C-63.3356919 -0.18207693 -53.17296921 -5.87153331 -41.55078125 -8.921875 C-26.33274821 -11.12153169 -12.73113792 -8.73141697 0 0 Z M-42.71484375 17.6328125 C-45.14963032 20.64597266 -45.14963032 20.64597266 -45.90234375 24.6953125 C-35.34234375 24.6953125 -24.78234375 24.6953125 -13.90234375 24.6953125 C-15.61122066 18.94904417 -15.61122066 18.94904417 -19.33984375 15.3828125 C-19.93667969 14.89167969 -20.53351563 14.40054688 -21.1484375 13.89453125 C-28.40613332 8.93214235 -37.2647776 11.48202356 -42.71484375 17.6328125 Z " fill="#000000" transform="translate(461.90234375,520.3046875)"/>
<path d="M0 0 C0.72058594 0.2784375 1.44117188 0.556875 2.18359375 0.84375 C8.94331884 3.80831752 14.05092288 8.54399237 17.3125 15.1875 C20.82518877 24.34008147 21.29668383 33.96930346 21.1953125 43.671875 C21.1924826 44.72030579 21.18965271 45.76873657 21.18673706 46.84893799 C21.17567322 50.14941545 21.15059568 53.44960661 21.125 56.75 C21.11495233 59.00780854 21.10582964 61.2656214 21.09765625 63.5234375 C21.07749332 69.0158201 21.0383191 74.50759517 21 80 C11.76 80 2.52 80 -7 80 C-7.33 78.02 -7.66 76.04 -8 74 C-9.1446875 75.1446875 -9.1446875 75.1446875 -10.3125 76.3125 C-17.41347787 82.17997467 -27.1627233 82.73534546 -36 82 C-45.26398212 80.91895184 -51.7974413 76.92146616 -57.7734375 69.84375 C-61.8769741 63.67537651 -61.68545563 57.16691587 -61 50 C-59.30688444 43.73445857 -55.30474986 39.55874204 -50 36 C-43.87373668 32.65602684 -38.06587477 31.8719565 -31.16796875 31.90234375 C-29.87568359 31.90556641 -28.58339844 31.90878906 -27.25195312 31.91210938 C-25.89713474 31.92046335 -24.54231703 31.92892828 -23.1875 31.9375 C-21.81315265 31.94252 -20.43880355 31.94708203 -19.06445312 31.95117188 C-15.70959076 31.96294332 -12.35481779 31.97938717 -9 32 C-10.92711719 26.43277257 -12.47611963 23.69909364 -18 21 C-29.10977017 19.30423261 -38.22016251 22.0888794 -48 27 C-49.67333158 23.87852455 -51.33751716 20.75226502 -53 17.625 C-53.47695313 16.73554687 -53.95390625 15.84609375 -54.4453125 14.9296875 C-55.12207031 13.65351562 -55.12207031 13.65351562 -55.8125 12.3515625 C-56.23144531 11.56604004 -56.65039062 10.78051758 -57.08203125 9.97119141 C-58 8 -58 8 -58 6 C-41.49558438 -3.68047454 -18.12806249 -7.41747883 0 0 Z M-31 50 C-32.8175397 52.78518155 -32.8175397 52.78518155 -33 56 C-31.8158809 58.89451336 -30.84124862 60.46878051 -28.1875 62.14453125 C-24.1477981 63.72434324 -20.13409513 63.02864099 -16 62 C-12.94067862 60.24656129 -10.60273483 58.20546965 -9 55 C-8.9310528 53.62657169 -8.91532292 52.24997898 -8.9375 50.875 C-8.958125 49.59625 -8.97875 48.3175 -9 47 C-20.54019332 46.1368356 -20.54019332 46.1368356 -31 50 Z " fill="#000000" transform="translate(841,514)"/>
<path d="M0 0 C7.38656054 6.13156239 9.73176429 13.80539163 11.4140625 23.00390625 C11.76665975 27.19642787 11.76756835 31.34590386 11.70703125 35.55078125 C11.70278641 36.68799622 11.69854156 37.82521118 11.69416809 38.99688721 C11.67754972 42.58281452 11.63992958 46.16815255 11.6015625 49.75390625 C11.58649389 52.20441889 11.57280933 54.65494046 11.56054688 57.10546875 C11.53027007 63.07201707 11.47151544 69.03731224 11.4140625 75.00390625 C2.1740625 75.00390625 -7.0659375 75.00390625 -16.5859375 75.00390625 C-16.9159375 73.02390625 -17.2459375 71.04390625 -17.5859375 69.00390625 C-18.070625 69.41382813 -18.5553125 69.82375 -19.0546875 70.24609375 C-27.4061467 76.9593821 -35.11996486 77.65370904 -45.5859375 77.00390625 C-53.70408264 76.09905805 -59.6412364 72.94860735 -65.3984375 67.19140625 C-69.98286692 60.51123767 -71.69202591 54.11103155 -70.5859375 46.00390625 C-68.76972739 39.29041532 -65.48612161 34.65544814 -59.5859375 31.00390625 C-50.55736058 26.89410799 -42.12809663 26.49803074 -32.3359375 26.75390625 C-30.99351671 26.77403445 -29.65106624 26.79227388 -28.30859375 26.80859375 C-25.06692588 26.85523645 -21.82683694 26.92067493 -18.5859375 27.00390625 C-19.32267599 23.86307376 -20.17223875 20.91107984 -21.5859375 18.00390625 C-28.33976001 14.20789189 -38.55423501 14.98638134 -45.8671875 16.83203125 C-49.92502219 18.29372439 -53.73642924 20.07080672 -57.5859375 22.00390625 C-59.12638641 19.09719663 -60.63971672 16.17719287 -62.1484375 13.25390625 C-62.58607422 12.42890625 -63.02371094 11.60390625 -63.47460938 10.75390625 C-64.08852539 9.55507813 -64.08852539 9.55507813 -64.71484375 8.33203125 C-65.09713135 7.59887695 -65.47941895 6.86572266 -65.87329102 6.11035156 C-66.72022679 3.60697305 -66.57874631 2.4310986 -65.5859375 0.00390625 C-47.9968644 -12.05229337 -17.2780729 -11.92535579 0 0 Z M-40.5859375 45.00390625 C-42.00635571 47.84474266 -41.90046022 49.85867903 -41.5859375 53.00390625 C-39.92190913 55.68082145 -38.5696002 56.73139248 -35.52734375 57.57421875 C-30.36941724 58.39183273 -26.99567275 58.08046573 -22.5859375 55.00390625 C-20.15181141 52.76194801 -18.72927061 51.24766775 -18.34375 47.90234375 C-18.33679668 45.93455355 -18.45283271 43.96720189 -18.5859375 42.00390625 C-30.03613602 41.27848083 -30.03613602 41.27848083 -40.5859375 45.00390625 Z " fill="#000000" transform="translate(551.5859375,518.99609375)"/>
<path d="M0 0 C-0.57539314 5.20285068 -2.29418893 9.23956036 -4.5625 13.875 C-4.89185547 14.56335938 -5.22121094 15.25171875 -5.56054688 15.9609375 C-6.36695361 17.6438733 -7.18254494 19.32240293 -8 21 C-8.54527344 20.80664062 -9.09054687 20.61328125 -9.65234375 20.4140625 C-19.07356406 17.16092318 -30.17699036 13.47973805 -40.09765625 16.67578125 C-41.89723938 17.53046564 -41.89723938 17.53046564 -44 19 C-44 20.32 -44 21.64 -44 23 C-43.24493164 23.12528076 -42.48986328 23.25056152 -41.71191406 23.37963867 C-38.22192989 23.9674339 -34.73613987 24.57733445 -31.25 25.1875 C-30.06277344 25.38408203 -28.87554688 25.58066406 -27.65234375 25.78320312 C-17.54092127 27.57894756 -6.69204046 29.66840862 -0.0859375 38.15625 C3.84195667 44.82519261 4.20188986 52.06312332 2.3828125 59.53515625 C-0.25968221 66.3518572 -4.94969043 70.85058199 -11.35546875 74.25 C-28.19558559 81.53221269 -48.59384837 80.7019488 -65.7421875 74.6875 C-68.53739201 73.52995649 -71.2810099 72.32544219 -74 71 C-73.32512263 66.18080529 -71.42034091 62.08116134 -69.4375 57.6875 C-69.10814453 56.94693359 -68.77878906 56.20636719 -68.43945312 55.44335938 C-67.63082877 53.62688438 -66.81602884 51.81316069 -66 50 C-65.4229834 50.19964355 -64.8459668 50.39928711 -64.25146484 50.60498047 C-62.72684426 51.12761478 -61.19682034 51.63454757 -59.6640625 52.1328125 C-57.96319338 52.68646785 -56.26933024 53.2624736 -54.5859375 53.8671875 C-48.53908646 55.83288211 -42.81258287 56.31284727 -36.5 56.375 C-35.70988525 56.38877686 -34.91977051 56.40255371 -34.10571289 56.41674805 C-29.90418332 56.47489298 -29.90418332 56.47489298 -26.25976562 54.66259766 C-24.69803736 52.94913998 -24.69803736 52.94913998 -25 50 C-25.76030518 49.86948242 -26.52061035 49.73896484 -27.30395508 49.60449219 C-30.80869725 48.99673035 -34.31051872 48.37346569 -37.8125 47.75 C-39.00810547 47.54503906 -40.20371094 47.34007812 -41.43554688 47.12890625 C-62.06478756 43.41901556 -62.06478756 43.41901556 -68 36 C-68.5775 35.29875 -69.155 34.5975 -69.75 33.875 C-73.53532013 28.19701981 -72.66982685 20.5143945 -72 14 C-69.37007024 6.29089291 -64.16603862 1.57119416 -57 -2 C-39.51485886 -9.32875553 -17.02813242 -7.70474433 0 0 Z " fill="#000000" transform="translate(1640,517)"/>
<path d="M0 0 C9.9 0 19.8 0 30 0 C30 26.73 30 53.46 30 81 C46.83 81 63.66 81 81 81 C81 88.92 81 96.84 81 105 C54.27 105 27.54 105 0 105 C0 70.35 0 35.7 0 0 Z " fill="#000000" transform="translate(924,489)"/>
<path d="M0 0 C9.9 0 19.8 0 30 0 C30 6.93 30 13.86 30 21 C35.94 21 41.88 21 48 21 C48 28.26 48 35.52 48 43 C42.06 43 36.12 43 30 43 C30.096956 47.36046831 30.19969259 51.71998999 30.31738281 56.07983398 C30.35565347 57.56282212 30.39050978 59.04590248 30.421875 60.52905273 C30.467568 62.66163072 30.52555338 64.79357491 30.5859375 66.92578125 C30.6173584 68.20880127 30.6487793 69.49182129 30.68115234 70.8137207 C30.76379228 74.15387459 30.76379228 74.15387459 33 77 C38.56666169 78.20611003 41.6007404 77.99772605 47 76 C48.23331876 79.07391974 49.432125 82.16018467 50.625 85.25 C50.975625 86.12269531 51.32625 86.99539063 51.6875 87.89453125 C52.00976562 88.73886719 52.33203125 89.58320312 52.6640625 90.453125 C52.96779785 91.22817383 53.2715332 92.00322266 53.58447266 92.80175781 C54 95 54 95 53.23120117 97.21875 C50.93737459 100.53736168 47.17341205 100.64421532 43.421875 101.4609375 C31.12708403 103.39778813 19.20153673 102.17846407 8.94140625 94.7265625 C3.22088776 89.63909938 0.97789198 83.50217708 0 76 C-0.2338599 70.30916656 -0.18950431 64.63152697 -0.125 58.9375 C-0.11495008 57.38867766 -0.10582779 55.83984901 -0.09765625 54.29101562 C-0.07580207 50.52718572 -0.04138343 46.76366377 0 43 C-3.96 43 -7.92 43 -12 43 C-12 35.74 -12 28.48 -12 21 C-8.04 21 -4.08 21 0 21 C0 14.07 0 7.14 0 0 Z " fill="#000000" transform="translate(583,494)"/>
<path d="M0 0 C9.57 0 19.14 0 29 0 C29 6.93 29 13.86 29 21 C35.27 21 41.54 21 48 21 C48 28.26 48 35.52 48 43 C41.73 43 35.46 43 29 43 C29.07418634 47.03931841 29.1571745 51.07698848 29.26245117 55.11547852 C29.29559806 56.48775958 29.32366171 57.86017362 29.34643555 59.23266602 C29.38016766 61.21137766 29.4340149 63.18971376 29.48828125 65.16796875 C29.51446533 66.35672607 29.54064941 67.5454834 29.56762695 68.77026367 C30.03855447 72.28799385 30.8149589 74.21941498 33 77 C37.95686583 78.40288656 41.28192431 77.95627529 46 76 C53 91.03045685 53 91.03045685 53 98 C40.48825831 102.87745863 27.81826619 103.91458561 15 99 C7.99339229 95.00932982 3.14076474 89.8393299 0.62182617 82.07397461 C-0.81095203 74.99108875 -0.2990733 67.63082015 -0.1875 60.4375 C-0.17242858 58.7441525 -0.15874451 57.05079206 -0.14648438 55.35742188 C-0.11366704 51.23795778 -0.06202063 47.1191237 0 43 C-3.96 43 -7.92 43 -12 43 C-12 35.74 -12 28.48 -12 21 C-8.04 21 -4.08 21 0 21 C0 14.07 0 7.14 0 0 Z " fill="#000000" transform="translate(1658,494)"/>
<path d="M0 0 C0 8.58 0 17.16 0 26 C-7.625 26.75 -7.625 26.75 -9.99072266 26.95605469 C-14.89911682 27.50683159 -18.20037341 28.63493481 -22 32 C-25.15240551 37.79204484 -25.4667572 42.79072849 -25.51171875 49.30859375 C-25.52966995 50.27531509 -25.54762115 51.24203644 -25.56611633 52.23805237 C-25.61999511 55.30449147 -25.65404309 58.37077692 -25.6875 61.4375 C-25.72069286 63.5254119 -25.75518433 65.61330359 -25.79101562 67.70117188 C-25.87813682 72.80080063 -25.93839758 77.89974467 -26 83 C-35.9 83 -45.8 83 -56 83 C-56 55.94 -56 28.88 -56 1 C-46.76 1 -37.52 1 -28 1 C-27.67 3.64 -27.34 6.28 -27 9 C-26.154375 8.236875 -25.30875 7.47375 -24.4375 6.6875 C-16.85451692 0.3743089 -9.57972982 0 0 0 Z " fill="#000000" transform="translate(382,511)"/>
</svg>
