<?xml version="1.0" encoding="UTF-8"?>
<svg version="1.1" xmlns="http://www.w3.org/2000/svg" width="1920" height="1080">
<path d="M0 0 C1.8751403 -0.01268921 1.8751403 -0.01268921 3.78816223 -0.02563477 C5.17651497 -0.01980119 6.56486642 -0.01365664 7.95321655 -0.00723267 C9.41374606 -0.01129762 10.8742725 -0.01663908 12.33479309 -0.02316284 C16.30884695 -0.0368683 20.28266772 -0.03152012 24.25672579 -0.02202559 C28.42748419 -0.01442554 32.59822274 -0.02147742 36.76898193 -0.02618408 C43.78860033 -0.03164912 50.80812422 -0.02443933 57.82772827 -0.01016235 C65.90445201 0.00607669 73.98094751 0.00094285 82.05766547 -0.01564157 C89.01166927 -0.02934205 95.96560504 -0.03113199 102.91961801 -0.02332556 C107.06337923 -0.01868422 111.20703404 -0.01792345 115.35078812 -0.02793503 C119.26280436 -0.03672444 123.17453341 -0.03036927 127.08651924 -0.01325226 C128.50810206 -0.00934643 129.92970983 -0.01031739 131.35128212 -0.01704025 C144.5638997 -0.07366732 158.17167948 1.37316438 170.64608765 6.00595093 C171.33646118 6.25755981 172.02683472 6.5091687 172.73812866 6.7684021 C184.68735627 11.34809808 195.04807082 18.26869764 204.02108765 27.38095093 C204.7893689 28.15052124 205.55765015 28.92009155 206.34921265 29.71298218 C225.64494909 50.02601085 231.65743441 75.9971607 231.29452515 103.27548218 C230.57054022 126.03083029 222.2087038 146.40686676 206.77108765 163.13095093 C199.40128167 169.97930836 186.46775794 181.38095093 176.02108765 181.38095093 C181.99069778 193.89566678 187.98722271 206.39709956 194.02108765 218.88095093 C198.64621769 228.45030961 203.2513303 238.02886794 207.82870483 247.6211853 C210.70021341 253.63347212 213.58988009 259.63680301 216.49201965 265.63435364 C218.02373993 268.79980132 219.5536637 271.96607684 221.07797241 275.13510132 C223.52418636 280.21981377 225.97084159 285.302434 228.5015564 290.34579468 C228.84219116 291.03737671 229.18282593 291.72895874 229.53378296 292.4414978 C230.37248213 294.14369402 231.2252889 295.83892113 232.0796814 297.53329468 C233.21903141 300.97971028 233.16071432 302.94250649 232.02108765 306.38095093 C228.52815639 308.91440013 224.71923366 308.67031258 220.57797241 308.65560913 C219.83439484 308.66072006 219.09081726 308.66583099 218.32470703 308.6710968 C215.87055375 308.68497896 213.41668174 308.68403711 210.9624939 308.68173218 C209.2538289 308.68561984 207.54516486 308.68995465 205.83650208 308.69471741 C202.25631578 308.70217662 198.6762281 308.70189049 195.09603882 308.69662476 C190.51158756 308.69083015 185.92754032 308.70776221 181.34315586 308.73096943 C177.81465806 308.74571211 174.28625744 308.74657775 170.7577343 308.7434597 C169.06766904 308.74397263 167.3775983 308.74920513 165.68756294 308.75927162 C163.32264185 308.77162943 160.95850624 308.76484883 158.59359741 308.75326538 C157.8978511 308.76090912 157.2021048 308.76855286 156.48527527 308.77642822 C152.16336649 308.7297163 149.44532772 308.04465143 146.02108765 305.38095093 C144.56089914 303.04505278 143.38090227 300.88740402 142.23202515 298.40829468 C141.72413956 297.35194069 141.72413956 297.35194069 141.20599365 296.27424622 C137.49932546 288.47006921 134.11033762 280.52324206 130.75216675 272.56445312 C128.81878785 267.98305354 126.8688466 263.40870989 124.91952515 258.83407593 C124.31890259 257.42331535 124.31890259 257.42331535 123.70614624 255.98405457 C118.59043507 243.99116616 113.31676751 232.06741777 108.0352478 220.14682007 C103.82776071 210.62955558 99.82607327 201.06691275 96.02108765 191.38095093 C88.76108765 191.05095093 81.50108765 190.72095093 74.02108765 190.38095093 C74.0367981 193.81863892 74.05250854 197.2563269 74.06869507 200.79818726 C74.11833411 212.13768782 74.15166651 223.47719676 74.17652416 234.81677723 C74.19200038 241.6941004 74.21310417 248.57132072 74.24740601 255.44857788 C74.28047379 262.0815731 74.29792534 268.71448931 74.30571938 275.34757042 C74.31127599 277.88220594 74.3221262 280.4168354 74.33827782 282.95142555 C74.35995479 286.49292426 74.3630586 290.03397697 74.36166382 293.57553101 C74.37244965 294.63072937 74.38323547 295.68592773 74.39434814 296.77310181 C74.39022415 297.73643936 74.38610016 298.69977692 74.3818512 299.69230652 C74.38461658 300.53021634 74.38738195 301.36812616 74.39023113 302.23142719 C73.93086493 304.90631808 73.15765439 305.75190398 71.02108765 307.38095093 C67.53930812 308.5415441 64.80908826 308.51510149 61.13461304 308.5262146 C60.09020805 308.53125252 60.09020805 308.53125252 59.02470398 308.53639221 C56.72269915 308.54589233 54.42076711 308.54784479 52.1187439 308.54891968 C50.51835602 308.55213271 48.91796843 308.55549682 47.31758118 308.55900574 C43.96263956 308.56499451 40.60772369 308.56684588 37.2527771 308.56625366 C32.95414317 308.56615201 28.6556743 308.57980862 24.35707951 308.59702587 C21.0516738 308.60814449 17.74630804 308.61017292 14.44088554 308.60964394 C12.85605742 308.61082409 11.27122826 308.61524786 9.68641853 308.6229763 C7.46981362 308.63277426 5.25356749 308.62989916 3.03695679 308.62387085 C1.14524498 308.62600838 1.14524498 308.62600838 -0.78468323 308.62818909 C-3.80901943 308.3941009 -5.49832159 308.07614132 -7.97891235 306.38095093 C-9.22378119 303.89121325 -9.1065314 302.22899675 -9.11034012 299.44240665 C-9.11418126 298.39177259 -9.11802241 297.34113852 -9.12197995 296.25866705 C-9.12111347 295.09536366 -9.12024699 293.93206026 -9.11935425 292.73350525 C-9.12232537 291.50476384 -9.12529649 290.27602242 -9.12835765 289.01004642 C-9.1355538 285.58846785 -9.13821819 282.16693947 -9.13895512 278.74535692 C-9.14080259 275.05954127 -9.1483483 271.37373658 -9.15509033 267.68792725 C-9.16868597 259.62405334 -9.1747001 251.5601844 -9.17910099 243.49630094 C-9.18186096 238.46460886 -9.18609782 233.43291872 -9.19060516 228.40122795 C-9.20279872 214.47933479 -9.21309833 200.55744317 -9.21648026 186.63554478 C-9.21669982 185.74411872 -9.21691939 184.85269266 -9.21714561 183.93425369 C-9.21736388 183.04065692 -9.21758216 182.14706016 -9.21780705 181.2263847 C-9.21825053 179.41552071 -9.21869709 177.60465672 -9.21914673 175.79379272 C-9.21936816 174.89553561 -9.21958959 173.9972785 -9.21981773 173.07180148 C-9.223768 158.50808139 -9.24122863 143.94441127 -9.26450625 129.38071049 C-9.28819327 114.44073674 -9.30068087 99.50078809 -9.30184817 84.56079525 C-9.30276635 76.16749695 -9.30855459 67.77426376 -9.32666779 59.38098335 C-9.34203298 52.23573878 -9.34721047 45.09057945 -9.33892968 37.94532151 C-9.33501059 34.2973667 -9.33601367 30.64958375 -9.34998703 27.00164986 C-9.36497519 23.05281814 -9.3568969 19.10423111 -9.34640503 15.15538025 C-9.35446143 13.99430758 -9.36251784 12.8332349 -9.37081838 11.63697821 C-9.36422853 10.58373639 -9.35763869 9.53049458 -9.35084915 8.44533634 C-9.35144624 7.53319309 -9.35204333 6.62104984 -9.35265851 5.68126589 C-8.4632883 0.20741264 -4.89848667 0.00508925 0 0 Z M74.02108765 72.38095093 C73.92240256 74.03286489 73.89309928 75.6889831 73.89169312 77.34384155 C73.88854095 78.40163818 73.88538879 79.45943481 73.88214111 80.54928589 C73.88416534 81.70029785 73.88618958 82.85130981 73.88827515 84.03720093 C73.88731842 85.20980469 73.88636169 86.38240845 73.88537598 87.59054565 C73.88469395 90.07553155 73.88654981 92.56051921 73.89071655 95.04550171 C73.89606445 98.8643898 73.89077229 102.68316027 73.8843689 106.50204468 C73.88502967 108.90959702 73.88631083 111.31714929 73.88827515 113.72470093 C73.88625092 114.87571289 73.88422668 116.02672485 73.88214111 117.21261597 C73.88529327 118.2704126 73.88844543 119.32820923 73.89169312 120.4180603 C73.89248871 121.35436279 73.8932843 122.29066528 73.894104 123.25534058 C73.78419121 125.36528153 73.78419121 125.36528153 75.02108765 126.38095093 C76.49687719 126.49487571 77.97802193 126.54050524 79.45809937 126.55795288 C80.87625443 126.57720573 80.87625443 126.57720573 82.32305908 126.59684753 C83.35520538 126.60423447 84.38735168 126.6116214 85.45077515 126.61923218 C86.51087799 126.62730392 87.57098083 126.63537567 88.66320801 126.64369202 C90.91790114 126.65756059 93.17261552 126.66827025 95.42733765 126.67611694 C98.84702788 126.69320577 102.26572001 126.73705226 105.68515015 126.78134155 C107.87785138 126.79147911 110.07056084 126.79999188 112.26327515 126.80673218 C113.27517914 126.82424026 114.28708313 126.84174835 115.32965088 126.85978699 C125.80623689 126.82841414 134.57406381 123.9332295 142.13827515 116.57235718 C147.41223047 110.43399839 148.70907997 104.31261609 148.40390015 96.30673218 C147.42410586 88.81830439 143.65470107 82.37704228 138.02108765 77.38095093 C129.61264327 71.69236276 119.97466008 71.07642037 110.11483765 71.15048218 C109.10892578 71.1509404 108.10301392 71.15139862 107.06661987 71.15187073 C104.95898241 71.15487233 102.85134675 71.16269518 100.7437439 71.17514038 C97.50277965 71.19355495 94.26209908 71.19564869 91.02108765 71.19540405 C88.96900182 71.20031407 86.91691794 71.20614012 84.86483765 71.21298218 C83.89203857 71.214095 82.9192395 71.21520782 81.91696167 71.21635437 C80.57921692 71.22592415 80.57921692 71.22592415 79.21444702 71.23568726 C78.03271912 71.24140495 78.03271912 71.24140495 76.82711792 71.24723816 C74.99945399 71.18492869 74.99945399 71.18492869 74.02108765 72.38095093 Z " fill="#54CDC2" transform="translate(584.9789123535156,239.61904907226563)"/>
<path d="M0 0 C19.3366815 18.26734276 30.98160877 39.98542057 32.5625 66.6875 C32.61180664 67.48099854 32.66111328 68.27449707 32.71191406 69.09204102 C32.89691388 73.66007598 32.60878851 77.30916474 30.6875 81.5625 C27.69425477 83.05912262 24.96175176 82.6981149 21.62329102 82.70776367 C20.89630005 82.71112228 20.16930908 82.7144809 19.42028809 82.71794128 C17.01064356 82.72746112 14.60106843 82.72939488 12.19140625 82.73046875 C10.51993277 82.73368052 8.84845957 82.73704453 7.17698669 82.74055481 C3.67063749 82.7465486 0.16431295 82.74839444 -3.34204102 82.74780273 C-7.83921676 82.74770108 -12.33623474 82.76135595 -16.83337307 82.77857494 C-20.28628773 82.78968281 -23.7391641 82.79172232 -27.1920948 82.79119301 C-28.85031745 82.79237486 -30.50854103 82.79680807 -32.16674614 82.80452538 C-34.48424264 82.81430125 -36.80139467 82.81145692 -39.11889648 82.80541992 C-41.09840553 82.80755745 -41.09840553 82.80755745 -43.11790466 82.80973816 C-46.3125 82.5625 -46.3125 82.5625 -49.3125 80.5625 C-50.12109375 77.5859375 -50.12109375 77.5859375 -50.75 73.9375 C-52.69582773 64.07729525 -56.09266561 56.17958954 -64.58203125 50.296875 C-65.75600704 49.62304685 -66.93716711 48.96158901 -68.125 48.3125 C-68.70314453 47.97476563 -69.28128906 47.63703125 -69.87695312 47.2890625 C-80.55290083 41.29637583 -93.95203806 40.8207371 -105.78125 43.28515625 C-111.66953336 45.28296668 -117.09000168 47.82279803 -120.37109375 53.34375 C-122.66662022 58.48572929 -122.74648972 63.14969373 -121.3125 68.5625 C-117.27363696 77.34263705 -108.05247064 81.47070392 -99.5234375 84.91796875 C-98.41103951 85.37098862 -98.41103951 85.37098862 -97.27616882 85.8331604 C-89.33195507 89.02383186 -81.25616917 91.76804488 -73.125 94.4375 C-71.56009187 94.95721195 -69.99523274 95.47707147 -68.43041992 95.99707031 C-59.64828323 98.89977666 -50.83031723 101.62802948 -41.94726562 104.20385742 C-25.13001243 109.08167722 -10.00781446 114.27879988 3.6875 125.5625 C4.47511719 126.19929687 5.26273438 126.83609375 6.07421875 127.4921875 C21.41822766 140.46556006 31.60505196 158.49527344 33.6875 178.5625 C34.71256661 197.09851964 33.76029763 214.98668498 24.6875 231.5625 C24.25824219 232.37589844 23.82898437 233.18929688 23.38671875 234.02734375 C9.73332904 258.37268371 -14.26361311 272.33365913 -40.46362305 279.86865234 C-64.56423826 286.30999778 -92.77900929 287.28797834 -117.3125 282.5625 C-118.12299805 282.40652344 -118.93349609 282.25054688 -119.76855469 282.08984375 C-132.21976282 279.59312916 -143.82712687 275.98319598 -155.3125 270.5625 C-156.31539062 270.09070313 -157.31828125 269.61890625 -158.3515625 269.1328125 C-178.75364728 258.72598539 -195.36060011 241.11505793 -203.3125 219.5625 C-206.68690414 208.60895071 -208.49543682 197.78030374 -208.5625 186.3125 C-208.583125 185.4153125 -208.60375 184.518125 -208.625 183.59375 C-208.63015625 182.73265625 -208.6353125 181.8715625 -208.640625 180.984375 C-208.65464355 179.81793457 -208.65464355 179.81793457 -208.66894531 178.62792969 C-208.21668741 176.00731195 -207.39620568 175.17013936 -205.3125 173.5625 C-201.8899561 172.42165203 -199.23568477 172.4215427 -195.62548828 172.40136719 C-194.95033173 172.39640228 -194.27517517 172.39143738 -193.57955933 172.38632202 C-191.34729999 172.37172402 -189.11511171 172.36490254 -186.8828125 172.359375 C-185.32966103 172.3536218 -183.77650959 172.34786409 -182.22335815 172.34210205 C-178.96677317 172.33159893 -175.71021282 172.32575169 -172.45361328 172.32226562 C-168.2850393 172.31678093 -164.11679195 172.29275077 -159.94832039 172.26429367 C-156.73980768 172.24565111 -153.53137342 172.24046085 -150.32281113 172.23892975 C-148.78624561 172.23590656 -147.24968136 172.22788927 -145.7131691 172.21474457 C-143.56129487 172.19764888 -141.41021577 172.19957234 -139.25830078 172.20605469 C-138.03490997 172.20240906 -136.81151917 172.19876343 -135.55105591 172.19500732 C-131.72483447 172.6291849 -129.05454832 173.82045168 -126.3125 176.5625 C-126.06573495 178.560405 -125.84044192 180.56097505 -125.625 182.5625 C-124.40402764 190.81084664 -120.9690425 197.26810409 -114.1953125 202.375 C-106.62775909 207.14789676 -99.21108674 210.48594816 -90.3125 211.5625 C-89.37792969 211.69527344 -88.44335938 211.82804688 -87.48046875 211.96484375 C-77.36158479 213.14515918 -65.85984086 212.76033484 -57.3125 206.5625 C-53.59632422 203.18935583 -51.28239826 199.50898111 -50.3125 194.5625 C-50.32215451 189.11735707 -51.00368198 185.01722903 -54.3125 180.5625 C-67.7911543 171.23434889 -85.88648634 167.3374802 -101.43701172 162.96948242 C-135.89628872 153.27097639 -176.89375362 136.99977535 -195.98828125 104.73046875 C-206.87455597 84.55169154 -208.27219073 59.48966402 -202.3125 37.5625 C-195.17208223 14.45024751 -178.47158462 -4.08539166 -157.3125 -15.4375 C-109.88916156 -40.15707669 -40.56016339 -37.02022586 0 0 Z " fill="#57CFC3" transform="translate(1318.3125,266.4375)"/>
<path d="M0 0 C0.74664413 -0.00525696 1.49328827 -0.01051392 2.26255798 -0.01593018 C4.73189176 -0.02913966 7.20058148 -0.02038908 9.66992188 -0.01025391 C11.38480758 -0.01227438 13.09969244 -0.01518559 14.8145752 -0.01895142 C18.4091815 -0.02337604 22.00356421 -0.01693934 25.59814453 -0.00292969 C30.20862881 0.01416238 34.81858921 0.00432193 39.42905426 -0.01364708 C42.97035681 -0.02448124 46.51153491 -0.02104029 50.05284119 -0.0132637 C51.75292523 -0.01126067 53.45302053 -0.01372458 55.15309143 -0.02070236 C57.52814723 -0.02831093 59.90235148 -0.0167218 62.27734375 0 C63.33410561 -0.00910904 63.33410561 -0.00910904 64.41221619 -0.0184021 C66.99928509 0.01538819 69.07439844 0.04409713 71.31900024 1.41282558 C73.39098253 4.51428409 73.04936806 7.76955937 73.01721191 11.37486267 C73.02174204 12.19792028 73.02627217 13.0209779 73.03093958 13.86897665 C73.0426009 16.63717543 73.03290132 19.40489444 73.0234375 22.1730957 C73.02754114 24.15404575 73.03300077 26.13499338 73.03971863 28.11593628 C73.05146464 32.38845046 73.05392029 36.66083538 73.04936218 40.93336296 C73.04256216 47.6957599 73.05840637 54.45798647 73.07775879 61.22035217 C73.11566819 75.58878674 73.12840932 89.9572067 73.13867188 104.32568359 C73.14974621 119.80631395 73.16519306 135.28686596 73.20938444 150.76744276 C73.22769698 157.48207495 73.23164801 164.19651302 73.22444916 170.91116416 C73.22292104 175.10290964 73.2337515 179.29455921 73.24782753 183.48627853 C73.25181118 185.42114334 73.25073785 187.35602666 73.24405479 189.29088402 C73.19714324 204.01131679 73.40516164 218.99268195 84.41992188 230.20068359 C92.3989812 236.74089615 103.04127411 240.0147731 113.29101562 239.16943359 C121.7683995 237.93290074 130.5693888 234.62605786 136.63867188 228.38818359 C142.76676792 219.71457073 146.1103058 211.22155815 146.02394104 200.58818054 C146.02917674 199.7502683 146.03441243 198.91235606 146.03980678 198.04905254 C146.05367395 195.26700762 146.04649116 192.48543305 146.03930664 189.70336914 C146.04505389 187.69870088 146.05213859 185.69403608 146.06045532 183.68937683 C146.07552973 179.38585388 146.08134606 175.08245469 146.07992744 170.77890587 C146.07789013 163.97621668 146.09748304 157.17369357 146.12010193 150.37104797 C146.16102422 137.16687444 146.17967647 123.96271417 146.1962738 110.75849152 C146.21865181 93.932703 146.25210287 77.10695286 146.30347294 60.28122741 C146.32341561 53.51590094 146.33297588 46.75066182 146.33442509 39.9853071 C146.33717046 35.78413793 146.34798893 31.58301727 146.36093521 27.38186836 C146.36522346 25.43073856 146.36606915 23.47959777 146.36326027 21.52846527 C146.3598713 18.86995367 146.3686147 16.2117497 146.38038635 13.55326843 C146.37640526 12.77730542 146.37242417 12.00134241 146.36832243 11.20186538 C146.39764365 7.47874231 146.42686475 4.48427908 148.63867188 1.38818359 C151.58360345 -0.08428219 154.56564703 0.23221656 157.79467773 0.22705078 C158.53142227 0.22208588 159.26816681 0.21712097 160.02723694 0.21200562 C162.46933926 0.19737617 164.91137665 0.19058125 167.35351562 0.18505859 C169.04740908 0.17930845 170.74130252 0.1735507 172.43519592 0.16778564 C175.98862004 0.15727388 179.54202151 0.15143215 183.09545898 0.14794922 C187.65323435 0.14245952 192.21071172 0.11842223 196.76839352 0.08997726 C200.26763287 0.07137417 203.76680004 0.06614657 207.26608467 0.06461334 C208.94664708 0.06158176 210.62720807 0.05353625 212.30772209 0.04042816 C214.65647091 0.02341344 217.00448641 0.02523617 219.35327148 0.03173828 C220.3983638 0.01791611 220.3983638 0.01791611 221.46456909 0.0038147 C224.29032423 0.02837663 226.18353685 0.06723468 228.5315094 1.72296143 C231.13245006 5.63489318 230.78159894 9.71268875 230.77238464 14.21386719 C230.7746502 15.01973518 230.77691576 15.82560318 230.77924997 16.65589142 C230.78559812 19.36614907 230.78476003 22.07635681 230.78393555 24.78662109 C230.78692686 26.72665471 230.79032933 28.66668774 230.79411316 30.60671997 C230.80296837 35.88864452 230.80529214 41.17055288 230.80592895 46.45248413 C230.80663954 49.75811939 230.80877421 53.06375053 230.81142616 56.36938477 C230.82069038 67.91959901 230.82476043 79.4698017 230.82397461 91.02001953 C230.82337617 101.75278871 230.83387909 112.48550724 230.84971827 123.21826363 C230.86285319 132.45081885 230.8681559 141.68335768 230.8675192 150.91592216 C230.8672656 156.42124075 230.87003881 161.92651452 230.88069725 167.43182373 C230.8904766 172.62581998 230.89039099 177.81972954 230.88318062 183.0137291 C230.88214629 184.90534468 230.8844278 186.79696594 230.89054108 188.68857193 C230.91877881 198.0435414 230.7121048 207.29595606 229.76802063 216.60888672 C229.69310778 217.3615406 229.61819493 218.11419449 229.54101199 218.88965607 C228.6218485 227.01779263 226.3391841 234.69081889 223.63867188 242.38818359 C223.08373047 243.98919922 223.08373047 243.98919922 222.51757812 245.62255859 C212.74843586 271.17782348 191.64258873 289.81731289 167.22387695 301.01635742 C133.42474762 315.9567095 90.89514097 315.58324849 56.52832031 302.59033203 C29.93528384 292.09792493 9.68287713 273.66790956 -2.11132812 247.57568359 C-7.64203234 234.83591797 -10.51669213 221.36658125 -10.50177002 207.48028564 C-10.50474114 206.60662472 -10.50771226 205.73296379 -10.51077342 204.83282828 C-10.51941535 201.91800199 -10.52096479 199.00321698 -10.52246094 196.08837891 C-10.52709199 193.99371758 -10.53211704 191.8990571 -10.5375061 189.80439758 C-10.55059703 184.12504004 -10.5570676 178.4456943 -10.56151676 172.76632404 C-10.56445042 169.21957809 -10.5685556 165.67283534 -10.57302094 162.126091 C-10.58668181 151.03252117 -10.59635762 139.93895869 -10.60022283 128.84538102 C-10.60471227 116.0309399 -10.62230708 103.21660498 -10.65122342 90.40219617 C-10.67279946 80.49805393 -10.68292478 70.59394168 -10.68426394 60.68977618 C-10.68531411 54.77252538 -10.6912678 48.85537461 -10.70908356 42.9381485 C-10.72549566 37.37969898 -10.72775332 31.82142547 -10.71894455 26.26296043 C-10.71817071 24.21948718 -10.72256218 22.17600471 -10.7324028 20.13255501 C-10.74501712 17.35087265 -10.73930344 14.56982388 -10.7288208 11.78814697 C-10.73687721 10.97288835 -10.74493361 10.15762972 -10.75323415 9.31766629 C-10.70531298 3.91008525 -10.70531298 3.91008525 -9.04234695 1.38699532 C-6.21965146 -0.29016695 -3.18805865 -0.02748032 0 0 Z " fill="#57D0C4" transform="translate(854.361328125,239.61181640625)"/>
<path d="M0 0 C0.98049914 -0.0055344 1.96099829 -0.01106879 2.97120953 -0.0167709 C6.27183212 -0.03043414 9.57170596 -0.01537714 12.87231445 -0.00050354 C15.23239464 -0.00428464 17.59247261 -0.00978295 19.95254517 -0.01687622 C26.37394555 -0.03087522 32.79507933 -0.01962975 39.216465 -0.00316501 C45.24615793 0.01092927 51.27585368 0.00507827 57.30555618 0.00170528 C69.25330902 -0.00417645 81.20095655 0.01001047 93.14868164 0.03465271 C104.74833118 0.05857443 116.34783999 0.06565739 127.94750977 0.05516052 C140.57167248 0.04375706 153.19577007 0.04181415 165.81993198 0.05625862 C167.16548728 0.0577845 168.51104259 0.05930485 169.8565979 0.06081963 C170.84971695 0.06195635 170.84971695 0.06195635 171.86289901 0.06311603 C176.53380868 0.06786331 181.20467202 0.06589594 185.87557983 0.06175423 C192.1595663 0.05699407 198.44335714 0.06704631 204.72730637 0.08870888 C207.03844925 0.09429003 209.34961089 0.09472995 211.66075516 0.08975601 C214.80612023 0.08383393 217.95088093 0.0962493 221.09619141 0.11352539 C222.01923411 0.10751535 222.94227682 0.1015053 223.89329052 0.09531313 C224.73342851 0.10375307 225.57356649 0.11219301 226.43916321 0.12088871 C227.16546086 0.12191784 227.89175852 0.12294697 228.64006519 0.12400728 C231.12824048 0.61589415 232.01968908 1.50867599 233.5480957 3.50120544 C233.92904663 6.30943298 233.92904663 6.30943298 233.9362793 9.76097107 C233.94573578 11.05241028 233.95519226 12.34384949 233.9649353 13.67442322 C233.95956562 15.08543708 233.95341267 16.49644814 233.9465332 17.90745544 C233.94855405 19.35329841 233.95146558 20.79914038 233.95523071 22.24497986 C233.95965359 25.27466032 233.95322447 28.30407537 233.93920898 31.33372498 C233.92211675 35.2178332 233.93195818 39.10131956 233.94992638 42.98540497 C233.9607654 45.97083728 233.95731741 48.95612209 233.949543 51.94155884 C233.9475413 53.37369866 233.94999923 54.80585187 233.95698166 56.23797607 C233.96459714 58.23912806 233.95093232 60.24032699 233.9362793 62.24143982 C233.93389252 63.38044739 233.93150574 64.51945496 233.92904663 65.69297791 C233.5480957 68.50120544 233.5480957 68.50120544 232.49881935 70.14969635 C229.51857716 72.21448109 226.456244 71.94048003 222.95556641 71.93357849 C222.18459625 71.94377014 221.4136261 71.95396179 220.61929321 71.96446228 C218.07074785 71.99465865 215.52257791 72.00386815 212.97387695 72.01292419 C211.20695235 72.02976599 209.44003977 72.04791556 207.67314148 72.06732178 C203.02236689 72.11488225 198.37164102 72.1446524 193.72070312 72.17076111 C188.97491838 72.2005362 184.22930161 72.24707696 179.48364258 72.29222107 C170.17188137 72.37832292 160.86008566 72.44563753 151.5480957 72.50120544 C151.55086108 73.68803043 151.55362646 74.87485542 151.55647564 76.09764481 C151.62142321 104.25876104 151.67090423 132.41987354 151.70129169 160.58104856 C151.70504389 164.04580802 151.70892685 167.51056732 151.71289062 170.97532654 C151.71367756 171.66510931 151.71446449 172.35489208 151.71527527 173.06557736 C151.72833577 184.24029062 151.75199315 195.41495768 151.77955409 206.58964351 C151.80759039 218.05250937 151.82404358 229.5153377 151.83036119 240.97823882 C151.83427914 247.41821437 151.84351543 253.85808504 151.86528587 260.29802704 C151.88559778 266.35540432 151.89194022 272.41263318 151.88741875 278.47004128 C151.88824632 280.6969235 151.89424332 282.92381053 151.90571213 285.15066338 C151.92057321 288.18413787 151.91707253 291.21704729 151.90885925 294.25053406 C151.91759778 295.13769175 151.9263363 296.02484944 151.93533963 296.9388907 C151.89186539 302.85343081 151.89186539 302.85343081 150.21304798 306.01687241 C146.78361998 309.07426531 143.04956865 308.63859542 138.67749023 308.66233826 C137.63549469 308.66978561 137.63549469 308.66978561 136.57244873 308.67738342 C134.27525846 308.69198374 131.97813724 308.69880329 129.6809082 308.70433044 C128.08291624 308.71008344 126.4849243 308.71584115 124.88693237 308.72160339 C121.53619058 308.73210716 118.18547274 308.73795398 114.8347168 308.74143982 C110.54507854 308.74692477 106.25575767 308.77095524 101.96621895 308.79941177 C98.66506022 308.81805189 95.36397775 308.82324447 92.06277084 308.8247757 C90.48154845 308.82779941 88.90032731 308.83581849 87.31915665 308.84896088 C85.10502332 308.86605141 82.89166309 308.86413429 80.67749023 308.85765076 C79.41856964 308.86129639 78.15964905 308.86494202 76.86257935 308.86869812 C73.26536231 308.46985744 71.37895182 307.72803513 68.5480957 305.50120544 C67.20761379 301.47975971 67.39450637 297.60274461 67.38987732 293.40875244 C67.38493934 292.46697212 67.38000136 291.52519181 67.37491375 290.55487269 C67.3595036 287.38569963 67.3511686 284.21654687 67.34277344 281.04734802 C67.33319768 278.78092265 67.32318778 276.51449907 67.31277466 274.24807739 C67.28568678 268.08317387 67.26469825 261.91826265 67.24477267 255.75333238 C67.22293705 249.31508364 67.19553652 242.8768587 67.16871643 236.43862915 C67.12443807 225.62852469 67.08360837 214.81841299 67.04541016 204.00828552 C67.00605421 192.87318468 66.96462775 181.73809473 66.92041016 170.60301208 C66.91768588 169.91679127 66.91496161 169.23057046 66.91215479 168.52355508 C66.89847529 165.08103046 66.88475502 161.638506 66.87101448 158.19598162 C66.75705285 129.63107903 66.65031609 101.06615233 66.5480957 72.50120544 C65.60262375 72.49755981 64.65715179 72.49391418 63.68302917 72.49015808 C54.78049025 72.45324503 45.87829842 72.39551327 36.97602367 72.3173027 C32.39904008 72.27776352 27.82225072 72.24560684 23.24511719 72.23020935 C18.82934111 72.21508491 14.41409881 72.18071524 9.99855995 72.13289642 C8.31247912 72.11803893 6.62632209 72.11016193 4.94017601 72.10932159 C2.58128062 72.10696317 0.22387404 72.07997775 -2.13476562 72.04710388 C-3.18457108 72.05464943 -3.18457108 72.05464943 -4.25558472 72.06234741 C-7.43522356 71.99361258 -9.04599199 71.89089875 -11.38541603 69.64495087 C-12.81857781 66.76415593 -12.83310158 64.54202524 -12.84008789 61.32737732 C-12.84954437 60.07928284 -12.85900085 58.83118835 -12.8687439 57.54527283 C-12.86337402 56.18683046 -12.85722103 54.828391 -12.8503418 53.46995544 C-12.85236357 52.07277779 -12.85527586 50.67560117 -12.85903931 49.27842712 C-12.86345787 46.35307244 -12.85704701 43.42799294 -12.84301758 40.50267029 C-12.82592555 36.75656479 -12.83576929 33.01110413 -12.85373497 29.26502228 C-12.86458569 26.38077452 -12.86112065 23.49667915 -12.85335159 20.61242676 C-12.85135313 19.23135298 -12.85379646 17.85026528 -12.86079025 16.46920776 C-12.86842497 14.53781913 -12.85472121 12.60638186 -12.84008789 10.67503357 C-12.83770111 9.5767926 -12.83531433 8.47855164 -12.83285522 7.34703064 C-11.76749744 -0.61153253 -6.7767702 -0.07051778 0 0 Z " fill="#4AC3B9" transform="translate(1383.451904296875,239.49879455566406)"/>
<path d="M0 0 C0.97556117 -0.00297112 1.95112233 -0.00594224 2.95624596 -0.0090034 C6.24590937 -0.01771897 9.53553651 -0.01920105 12.82521057 -0.02069092 C15.17528868 -0.02531701 17.52536603 -0.03034138 19.8754425 -0.03573608 C26.94179508 -0.05025238 34.00813987 -0.05624633 41.0745047 -0.0611316 C44.39992156 -0.06370756 47.7253369 -0.06752566 51.05075264 -0.07125092 C62.10061078 -0.08344393 73.15046697 -0.09374367 84.20033169 -0.09712601 C84.90776585 -0.09734557 85.61520001 -0.09756514 86.34407157 -0.09779136 C87.05322156 -0.09800964 87.76237155 -0.09822791 88.49301094 -0.09845281 C89.93007879 -0.09889628 91.36714663 -0.09934284 92.80421448 -0.09979248 C93.87347297 -0.10012463 93.87347297 -0.10012463 94.96433265 -0.10046348 C106.52112395 -0.10441354 118.07785227 -0.12187372 129.63461923 -0.145152 C141.49191967 -0.16884346 153.34918848 -0.18132682 165.20651299 -0.18249393 C171.86718576 -0.18341185 178.5277808 -0.1895104 185.18842888 -0.20731354 C191.45021102 -0.22372465 197.71183691 -0.22598373 203.97363281 -0.21717453 C206.27672301 -0.21640046 208.57982138 -0.22079519 210.8828907 -0.23063278 C214.01733123 -0.24324045 217.15120892 -0.23753666 220.28564453 -0.22705078 C221.20547841 -0.23510719 222.12531229 -0.24316359 223.07301992 -0.25146413 C224.32892686 -0.24157936 224.32892686 -0.24157936 225.61020565 -0.2314949 C226.33400762 -0.23209199 227.05780958 -0.23268908 227.80354494 -0.23330426 C230.26662152 0.25049873 231.14907285 1.21369674 232.70631409 3.14044189 C233.87376734 6.30341808 233.83862952 9.38371658 233.85157776 12.73175049 C233.85795761 13.85326508 233.86433746 14.97477966 233.87091064 16.13027954 C233.87257988 17.94128647 233.87257988 17.94128647 233.87428284 19.78887939 C233.87761124 21.03416412 233.88093964 22.27944885 233.8843689 23.56246948 C233.88943197 26.19689508 233.89220998 28.83121749 233.89161682 31.46563721 C233.89153546 34.16199435 233.89849159 36.85818199 233.91212463 39.55450439 C233.93044546 43.44518221 233.93535339 47.33566275 233.93678284 51.22637939 C233.94396835 52.42966888 233.95115387 53.63295837 233.95855713 54.87271118 C233.9554805 56.00053009 233.95240387 57.128349 233.94923401 58.29034424 C233.95065903 59.27755463 233.95208405 60.26476501 233.95355225 61.28189087 C233.66356687 64.63468229 233.18572917 68.66102681 230.70631409 71.14044189 C228.21232344 71.26541804 225.7446308 71.32647069 223.2490387 71.34576416 C222.46860703 71.35566376 221.68817535 71.36556335 220.88409424 71.37576294 C218.29231346 71.40746964 215.70051432 71.4321714 213.10865784 71.45684814 C211.31646231 71.47740977 209.52427172 71.49840602 207.73208618 71.51982117 C203.00566088 71.57512365 198.27919124 71.62449673 193.5526886 71.67266846 C188.73341404 71.72282394 183.91420421 71.778541 179.09498596 71.83380127 C169.63215058 71.94148279 160.16925909 72.04290541 150.70631409 72.14044189 C150.70907947 73.33334241 150.71184484 74.52624292 150.71469402 75.75529194 C150.77962862 104.05468679 150.8291161 132.35407971 150.85951008 160.65353261 C150.86326232 164.13460211 150.86714527 167.61567146 150.87110901 171.09674072 C150.87189594 171.78977642 150.87268287 172.48281211 150.87349365 173.19684889 C150.88655746 184.42720306 150.91021664 195.65751128 150.93777248 206.88783816 C150.96579961 218.40606869 150.98225999 229.92426686 150.98857957 241.44253081 C150.99249911 247.91433229 151.00174536 254.38602948 151.02350426 260.85779762 C151.04380154 266.94389875 151.0501616 273.0298522 151.04563713 279.11598396 C151.04646537 281.35457409 151.05247102 283.59316894 151.06393051 285.83172989 C151.07876878 288.87869097 151.07529938 291.92508811 151.06707764 294.97206116 C151.07581616 295.86602264 151.08455469 296.75998412 151.09355801 297.68103534 C151.08758487 298.49515626 151.08161172 299.30927718 151.07545757 300.14806843 C151.07659673 300.8516902 151.07773589 301.55531197 151.07890958 302.28025562 C150.58637457 304.73924099 149.65477132 305.60341053 147.70631409 307.14044189 C144.22453456 308.30103507 141.4943147 308.27459246 137.81983948 308.28570557 C136.77543449 308.29074348 136.77543449 308.29074348 135.70993042 308.29588318 C133.40792559 308.30538329 131.10599355 308.30733576 128.80397034 308.30841064 C127.20358246 308.31162368 125.60319488 308.31498779 124.00280762 308.3184967 C120.647866 308.32448548 117.29295013 308.32633684 113.93800354 308.32574463 C109.63936961 308.32564298 105.34090074 308.33929958 101.04230595 308.35651684 C97.73690024 308.36763546 94.43153448 308.36966389 91.12611198 308.3691349 C89.54128386 308.37031506 87.9564547 308.37473883 86.37164497 308.38246727 C84.15504006 308.39226523 81.93879393 308.38939013 79.72218323 308.38336182 C78.46104202 308.38478683 77.19990082 308.38621185 75.90054321 308.38768005 C72.87620701 308.15359186 71.18690485 307.83563228 68.70631409 306.14044189 C67.00845365 302.74472103 67.55606418 298.87322821 67.55482483 295.13700867 C67.55059242 294.19270479 67.54636001 293.24840091 67.54199934 292.27548176 C67.52891885 289.0917137 67.52293614 285.90797071 67.51686096 282.72418213 C67.50892297 280.44967494 67.50053538 278.17516928 67.49172974 275.90066528 C67.47364182 270.9935443 67.45863739 266.08642676 67.44595337 261.17928886 C67.42578271 253.42869269 67.3981244 245.6781346 67.36927795 237.92756653 C67.32956517 227.06860126 67.29260468 216.20963141 67.25856018 205.35064697 C67.25531598 204.31648892 67.25531598 204.31648892 67.25200623 203.26143879 C67.23448213 197.66641048 67.21713678 192.0713816 67.19980335 186.47635269 C67.18464071 181.58419011 67.1694082 176.69202775 67.15406799 171.79986572 C67.15082969 170.76650803 67.15082969 170.76650803 67.14752597 169.71227442 C67.11145842 158.24143689 67.07146823 146.77061728 67.0287652 135.29980236 C67.00033657 127.58615744 66.97676943 119.87251714 66.95684052 112.15884578 C66.94349756 107.37111632 66.926083 102.5834081 66.90752983 97.79569626 C66.89974343 95.56595329 66.89368726 93.33620355 66.88943672 91.10645103 C66.88343266 88.07656124 66.8714058 85.04675522 66.85780334 82.01689148 C66.85750736 81.1223595 66.85721137 80.22782753 66.85690641 79.30618852 C67.21868878 75.41026828 67.21868878 75.41026828 65.70631409 72.14044189 C63.34948792 72.04209524 61.02115427 72.00741781 58.66383362 72.01446533 C57.92723511 72.0125972 57.1906366 72.01072906 56.43171692 72.00880432 C54.82694474 72.00479119 53.22216683 72.00272465 51.61738968 72.00234222 C48.21062895 71.99893942 44.80406129 71.97759364 41.39736748 71.95711136 C35.04768766 71.91901398 28.69821092 71.88782908 22.34840393 71.88995361 C17.93792111 71.89073918 13.52813964 71.86744265 9.11783981 71.82807159 C7.43453497 71.81758406 5.75114943 71.81610777 4.06782913 71.82372284 C1.71363799 71.83330986 -0.63841831 71.81223239 -2.99241638 71.78399658 C-3.69071564 71.79419327 -4.38901489 71.80438995 -5.10847473 71.81489563 C-7.05439758 71.77294922 -7.05439758 71.77294922 -10.29368591 71.14044189 C-13.40584831 67.66494618 -13.66870213 64.58876148 -13.66600037 60.03668213 C-13.67222916 58.82870468 -13.67845795 57.62072723 -13.68487549 56.37614441 C-13.67566574 55.08019852 -13.66645599 53.78425262 -13.65696716 52.44903564 C-13.65644807 51.09812928 -13.65696767 49.74722215 -13.65847778 48.39631653 C-13.65838827 45.57108215 -13.64800044 42.74613437 -13.62986755 39.92095947 C-13.60715909 36.30389894 -13.60664237 32.68725594 -13.6133852 29.0701437 C-13.61672985 26.28284509 -13.61008616 23.49564129 -13.60025597 20.70836067 C-13.5945492 18.72751269 -13.59583809 16.74664856 -13.597229 14.76579285 C-13.58769699 13.56096756 -13.57816498 12.35614227 -13.56834412 11.11480713 C-13.56373672 10.05511215 -13.55912933 8.99541718 -13.55438232 7.90361023 C-13.29126788 5.11481268 -12.82135934 3.46966885 -11.29368591 1.14044189 C-7.8287987 -0.59200171 -3.81422862 -0.00358431 0 0 Z " fill="#4AC3B9" transform="translate(318.29368591308594,239.85955810546875)"/>
<path d="M0 0 C0.78295441 -0.00902847 1.56590881 -0.01805695 2.37258911 -0.02735901 C4.02846454 -0.04185964 5.68439724 -0.05074779 7.34033203 -0.05444336 C9.86719915 -0.06633279 12.39161761 -0.11550831 14.91796875 -0.16601562 C16.52863394 -0.17548117 18.1393141 -0.18271558 19.75 -0.1875 C20.50223846 -0.20703232 21.25447693 -0.22656464 22.0295105 -0.24668884 C25.90864177 -0.21351485 27.75056493 0.16522403 30.81201172 2.61523438 C36.69731035 10.00163097 41.7299148 17.94819333 46.7578125 25.93359375 C47.98642474 27.87535092 49.21559743 29.81675357 50.4453125 31.7578125 C51.04730469 32.70833496 51.64929688 33.65885742 52.26953125 34.63818359 C54.74089829 38.52364464 57.24691659 42.38610711 59.7578125 46.24609375 C64.94265985 54.22484352 69.99120338 62.28575628 75.0078125 70.37109375 C79.44996406 64.51440231 83.5935777 58.56381754 87.4453125 52.30859375 C94.09160991 41.5200335 101.07567332 30.95131503 108.04003906 20.36669922 C109.77329241 17.7281113 111.49788532 15.08417436 113.21875 12.4375 C114.10645303 11.0818231 114.99444339 9.72633426 115.8828125 8.37109375 C116.26888672 7.77288818 116.65496094 7.17468262 117.05273438 6.55834961 C118.88578054 3.78081722 120.18441844 2.25335645 123.0078125 0.37109375 C125.81390555 0.17510913 128.51833447 0.09104528 131.32421875 0.10546875 C132.54261696 0.10259857 132.54261696 0.10259857 133.78562927 0.09967041 C135.50121369 0.09831028 137.21680845 0.10199471 138.93237305 0.11035156 C141.56387319 0.12106753 144.19469279 0.11044355 146.82617188 0.09765625 C148.49218901 0.0989776 150.15820572 0.1015395 151.82421875 0.10546875 C153.0086129 0.09939606 153.0086129 0.09939606 154.2169342 0.09320068 C159.77788275 0.141164 159.77788275 0.141164 162.0078125 2.37109375 C162.20543012 5.02471165 162.27706494 7.57406256 162.26177979 10.22888184 C162.26645976 11.46051945 162.26645976 11.46051945 162.27123427 12.71703863 C162.27924762 15.48395694 162.27287771 18.25065796 162.26660156 21.01757812 C162.26930995 22.99489979 162.27287001 24.97222045 162.27722168 26.94953918 C162.28636613 32.33163981 162.28279298 37.71366405 162.27646351 43.09576607 C162.27141413 48.71761411 162.27609199 54.33945543 162.27923584 59.96130371 C162.28287859 69.40373921 162.27806829 78.84614346 162.26855469 88.28857422 C162.25766956 99.21877404 162.26119491 110.14889926 162.2722075 121.07909727 C162.28127158 130.44894918 162.28256996 139.81877857 162.27733016 149.18863344 C162.27420561 154.7912293 162.27381436 160.39379004 162.28040314 165.99638367 C162.28616321 171.26254979 162.28220434 176.52861936 162.27061462 181.79477501 C162.26796085 183.73222887 162.26874527 185.6696908 162.27313995 187.60714149 C162.27856867 190.2426408 162.27179407 192.87782658 162.26177979 195.51330566 C162.26847195 196.67564169 162.26847195 196.67564169 162.27529931 197.86145926 C162.23611261 203.14279364 162.23611261 203.14279364 160.0078125 205.37109375 C157.16257942 205.58324163 154.41714018 205.67506012 151.5703125 205.671875 C150.3164978 205.67830269 150.3164978 205.67830269 149.03735352 205.68486023 C147.26872667 205.69060748 145.50007619 205.69110088 143.73144531 205.68676758 C141.0184724 205.68360617 138.30658808 205.70706595 135.59375 205.73242188 C133.87760555 205.73469461 132.16145815 205.73539848 130.4453125 205.734375 C129.63070557 205.74358475 128.81609863 205.75279449 127.97680664 205.76228333 C125.69140625 205.7434082 125.69140625 205.7434082 122.0078125 205.37109375 C119.79617944 202.05364416 119.75204742 201.01506866 119.7293396 197.1509552 C119.71817612 196.06981949 119.70701263 194.98868378 119.69551086 193.87478638 C119.69335068 192.68867767 119.69119049 191.50256897 119.68896484 190.28051758 C119.67389641 188.40717491 119.67389641 188.40717491 119.65852356 186.49598694 C119.63290485 183.0706177 119.61606605 179.6454146 119.60309553 176.21998811 C119.58747717 172.64048166 119.56068285 169.06105949 119.5350647 165.48161316 C119.48825391 158.70312859 119.45152098 151.9246282 119.41839182 145.14606446 C119.38018665 137.42904014 119.33077231 129.7121004 119.28040767 121.99514735 C119.17705363 106.12052393 119.08780457 90.24585311 119.0078125 74.37109375 C118.70142853 74.87578186 118.39504456 75.38046997 118.07937622 75.90045166 C116.66384921 78.23015724 115.24600055 80.55844182 113.828125 82.88671875 C113.10556519 84.0770874 113.10556519 84.0770874 112.3684082 85.29150391 C108.5511044 91.55431803 104.54382329 97.66646843 100.4375 103.7421875 C97.499577 108.10157122 94.67770035 112.53450841 91.87451172 116.98144531 C90.3802451 119.33323687 88.98546238 121.39344387 87.0078125 123.37109375 C79.18106246 124.79248962 68.00546887 125.87364807 61.09375 121.546875 C58.98010418 118.61025644 57.52932506 115.65511494 56.0078125 112.37109375 C54.8061245 110.31375892 53.54999865 108.29738858 52.28250122 106.2800293 C50.89011859 104.04561451 49.52787878 101.79559271 48.17089844 99.53955078 C44.93728061 94.21233373 41.55469866 88.98883208 38.14453125 83.7734375 C37.55071655 82.86267456 36.95690186 81.95191162 36.34509277 81.0135498 C34.90064521 78.79853636 33.45487024 76.58440248 32.0078125 74.37109375 C32.00450235 75.02800611 32.00119221 75.68491846 31.99778175 76.36173725 C31.91661069 92.33558532 31.82453775 108.30932754 31.72028542 124.28304005 C31.67013379 132.00776496 31.62369121 139.73247912 31.5859375 147.45727539 C31.55302736 154.18911163 31.51320165 160.92086508 31.46502244 167.65261 C31.43974763 171.2180116 31.41796933 174.78335821 31.40446854 178.34882545 C31.38927877 182.32615598 31.35865146 186.30328489 31.32666016 190.28051758 C31.32449997 191.46662628 31.32233978 192.65273499 31.32011414 193.87478638 C31.30895065 194.95592209 31.29778717 196.0370578 31.2862854 197.1509552 C31.27798926 198.56268116 31.27798926 198.56268116 31.26952553 200.00292683 C31.0078125 202.37109375 31.0078125 202.37109375 29.0078125 205.37109375 C26.12287319 205.66268524 23.45593313 205.76699912 20.5703125 205.734375 C19.73443604 205.7348735 18.89855957 205.73537201 18.03735352 205.73588562 C16.26869329 205.73354334 14.50002984 205.72380572 12.73144531 205.70727539 C10.01857818 205.68368736 7.30669355 205.68671242 4.59375 205.69335938 C2.87759829 205.68778264 1.16145072 205.68067279 -0.5546875 205.671875 C-1.7765979 205.67324211 -1.7765979 205.67324211 -3.02319336 205.67463684 C-8.76116592 205.60211533 -8.76116592 205.60211533 -10.9921875 203.37109375 C-11.19198742 200.7176215 -11.26583227 198.1681627 -11.25288391 195.51330566 C-11.25670946 194.69221392 -11.26053501 193.87112218 -11.26447648 193.02514887 C-11.27484195 190.2582383 -11.27080767 187.49153388 -11.2668457 184.72460938 C-11.27119019 182.74728706 -11.27637245 180.76996642 -11.28233337 178.79264832 C-11.29576216 173.41055384 -11.29629781 168.02852941 -11.29377007 162.64642143 C-11.29270311 158.1604863 -11.29757661 153.67456551 -11.3023755 149.18863344 C-11.31348384 138.61028256 -11.31390046 128.03196718 -11.30786133 117.45361328 C-11.3018175 106.52338875 -11.31413992 95.59329281 -11.3354314 84.66309023 C-11.35301545 75.29323646 -11.35905387 65.92342373 -11.35579365 56.55355406 C-11.35397573 50.95093511 -11.35666752 45.34840791 -11.37050819 39.74580383 C-11.38303027 34.47960518 -11.38119605 29.21360785 -11.36809731 23.94741249 C-11.36571975 22.00995632 -11.36850801 20.07248623 -11.37672043 18.13504601 C-11.38709043 15.49942008 -11.37916664 12.86448204 -11.3664093 10.22888184 C-11.37378359 9.45399115 -11.38115787 8.67910047 -11.38875562 7.88072824 C-11.36691761 5.75069427 -11.36691761 5.75069427 -10.9921875 2.37109375 C-7.26942388 -0.11074866 -4.31570699 0.03060194 0 0 Z " fill="#87EACF" transform="translate(501.9921875,636.62890625)"/>
<path d="M0 0 C0.75995773 -0.00365067 1.51991547 -0.00730133 2.30290222 -0.01106262 C4.8252069 -0.01918941 7.34687228 -0.00552062 9.86914062 0.0090332 C11.63537597 0.00955241 13.4016119 0.00903236 15.16784668 0.00752258 C18.88363196 0.00761246 22.59920103 0.01805674 26.31494141 0.03613281 C31.02241093 0.05855556 35.72955723 0.05941415 40.43706512 0.05261517 C44.09567001 0.0492279 47.75420461 0.0559975 51.41279602 0.0657444 C53.14430876 0.06953562 54.87582944 0.07077056 56.60734558 0.06915855 C65.72219318 0.0677427 74.72908946 0.34474616 83.80078125 1.27783203 C84.57277107 1.35671252 85.34476089 1.43559301 86.14014435 1.51686382 C102.57654359 3.37594773 116.52581793 9.86637552 127.34570312 22.49731445 C136.447535 34.93800927 138.0558972 51.93242632 136.06445312 66.81762695 C134.56117293 74.29865661 131.94214696 80.17078189 127.52539062 86.37231445 C126.76226563 87.44481445 125.99914063 88.51731445 125.21289062 89.62231445 C121.73140148 93.18476846 117.88335019 95.95788499 113.52539062 98.37231445 C112.86539062 98.37231445 112.20539063 98.37231445 111.52539062 98.37231445 C111.52539062 99.03231445 111.52539062 99.69231445 111.52539062 100.37231445 C112.26015625 100.63915039 112.99492188 100.90598633 113.75195312 101.1809082 C123.90100643 105.54071279 130.9538314 114.36720431 135.33789062 124.24731445 C141.31821185 139.80795291 141.47801062 157.43623821 135.04882812 172.9309082 C127.85262645 187.14258503 116.71979625 194.90539714 102.15039062 200.68481445 C88.00183417 205.20234121 74.2797763 205.824739 59.56445312 205.77075195 C57.59670911 205.77277784 55.62896584 205.77569353 53.66122437 205.77944946 C49.57518227 205.78383407 45.48933904 205.77755805 41.40332031 205.76342773 C36.15976834 205.74617819 30.9166718 205.75629987 25.67313576 205.77414513 C21.62749756 205.78495287 17.58196874 205.78155328 13.53632736 205.77376175 C11.60096558 205.77175959 9.66559391 205.77421958 7.73024368 205.78120041 C5.04270974 205.78878258 2.35593411 205.77726396 -0.33154297 205.76049805 C-1.13143143 205.76657074 -1.93131989 205.77264343 -2.75544739 205.77890015 C-4.96298218 205.75326538 -4.96298218 205.75326538 -8.47460938 205.37231445 C-10.95730792 201.64826663 -10.7566377 198.78648645 -10.73530579 194.47692871 C-10.73913133 193.66385521 -10.74295688 192.85078172 -10.74689835 192.01306963 C-10.75724552 189.27923716 -10.75323299 186.54561405 -10.74926758 183.81176758 C-10.75361307 181.85562444 -10.75879567 179.899483 -10.76475525 177.94334412 C-10.77817308 172.62322296 -10.7787209 167.30317273 -10.77619195 161.98303795 C-10.77512427 157.54685341 -10.78000032 153.11068334 -10.78479737 148.6745019 C-10.79590188 138.21259643 -10.79632445 127.75072687 -10.7902832 117.28881836 C-10.7842395 106.48299243 -10.79656237 95.67729659 -10.81785327 84.87149286 C-10.83544353 75.60436244 -10.84147477 66.33727352 -10.83821553 57.07012701 C-10.83639864 51.53064788 -10.83907929 45.99126156 -10.85293007 40.45179749 C-10.86546219 35.24467759 -10.86360826 30.03776121 -10.85051918 24.83064461 C-10.84814386 22.91618342 -10.85092203 21.00170812 -10.8591423 19.08726311 C-10.86953091 16.48050259 -10.86157323 13.87443503 -10.84883118 11.2677002 C-10.85620546 10.50418637 -10.86357975 9.74067254 -10.87117749 8.95402193 C-10.81881518 3.88734554 -10.81881518 3.88734554 -9.15796947 1.40224171 C-6.31776634 -0.33547479 -3.22852013 -0.0344292 0 0 Z M31.52539062 37.37231445 C31.42725076 38.80971798 31.39740782 40.25187772 31.39599609 41.69262695 C31.39284393 42.61027832 31.38969177 43.52792969 31.38644409 44.47338867 C31.38846832 45.47128418 31.39049255 46.46917969 31.39257812 47.49731445 C31.3916214 48.5145459 31.39066467 49.53177734 31.38967896 50.57983398 C31.38899701 52.73527081 31.39085228 54.89070967 31.39501953 57.04614258 C31.40036757 60.35803816 31.395075 63.66979812 31.38867188 66.98168945 C31.38933265 69.07023142 31.39061381 71.1587733 31.39257812 73.24731445 C31.39055389 74.24520996 31.38852966 75.24310547 31.38644409 76.27124023 C31.38959625 77.1888916 31.39274841 78.10654297 31.39599609 79.05200195 C31.39679169 79.8639502 31.39758728 80.67589844 31.39840698 81.51245117 C31.32174873 83.38777198 31.32174873 83.38777198 32.52539062 84.37231445 C35.13583398 84.48600306 37.71872549 84.53650755 40.33007812 84.5402832 C41.52070358 84.5452758 41.52070358 84.5452758 42.73538208 84.55036926 C44.42514465 84.55544713 46.11491731 84.55777732 47.8046875 84.55761719 C50.35499459 84.55977603 52.9048493 84.57784419 55.45507812 84.59692383 C73.81089144 84.887687 73.81089144 84.887687 89.52539062 76.37231445 C94.26468258 71.08879759 95.88711651 65.41533013 95.52539062 58.37231445 C94.41972892 51.79653697 92.35177251 46.97931534 87.52539062 42.37231445 C79.71600378 36.96581587 71.47312663 36.05847345 62.15039062 36.1418457 C60.8745813 36.14253304 60.8745813 36.14253304 59.57299805 36.14323425 C57.79490748 36.1462306 56.01681892 36.15403716 54.23876953 36.16650391 C51.50478962 36.18495347 48.77114553 36.18701191 46.03710938 36.18676758 C44.30403351 36.19167655 42.57095993 36.19750213 40.83789062 36.2043457 C40.01820801 36.20545853 39.19852539 36.20657135 38.35400391 36.2077179 C34.63603042 35.8842571 34.63603042 35.8842571 31.52539062 37.37231445 Z M31.52539062 119.37231445 C31.42699849 120.90166076 31.39740524 122.43551011 31.39599609 123.96801758 C31.39284393 124.9457312 31.38969177 125.92344482 31.38644409 126.93078613 C31.38846832 127.99430298 31.39049255 129.05781982 31.39257812 130.15356445 C31.3916214 131.23738403 31.39066467 132.32120361 31.38967896 133.43786621 C31.38899697 135.73453835 31.39085251 138.0312124 31.39501953 140.32788086 C31.40036751 143.85705873 31.39507512 147.38610932 31.38867188 150.9152832 C31.38933265 153.1405439 31.39061381 155.36580452 31.39257812 157.59106445 C31.39055389 158.6545813 31.38852966 159.71809814 31.38644409 160.81384277 C31.38959625 161.7915564 31.39274841 162.76927002 31.39599609 163.77661133 C31.39679169 164.64185425 31.39758728 165.50709717 31.39840698 166.39855957 C31.30743335 168.37444027 31.30743335 168.37444027 32.52539062 169.37231445 C35.15919919 169.47352664 37.76616545 169.51199902 40.40039062 169.50512695 C41.19888428 169.50608368 41.99737793 169.50704041 42.82006836 169.50802612 C44.51822996 169.50870853 46.21639415 169.50685005 47.91455078 169.50268555 C50.48671532 169.49739402 53.05870072 169.50259909 55.63085938 169.5090332 C57.28320351 169.50837133 58.93554753 169.50708793 60.58789062 169.50512695 C61.72750244 169.5081633 61.72750244 169.5081633 62.89013672 169.51126099 C73.08325806 169.46765658 82.49302484 168.82010046 90.41992188 161.66137695 C95.88358152 155.57291925 97.42660791 149.47249732 97.52539062 141.37231445 C96.57421457 133.76290601 93.26370409 128.34551946 87.52539062 123.37231445 C79.81099807 118.51630735 72.03217376 118.21793136 63.12695312 118.23950195 C62.25138763 118.23854523 61.37582214 118.2375885 60.47372437 118.23660278 C58.63661629 118.23592595 56.79950575 118.23774537 54.96240234 118.24194336 C52.13829272 118.24733756 49.31433935 118.24196181 46.49023438 118.2355957 C44.70247361 118.23625581 42.91471293 118.23753558 41.12695312 118.23950195 C40.27912262 118.23747772 39.43129211 118.23545349 38.55776978 118.23336792 C34.73283269 117.87329606 34.73283269 117.87329606 31.52539062 119.37231445 Z " fill="#81E6CD" transform="translate(937.474609375,636.627685546875)"/>
<path d="M0 0 C0.83626419 -0.00350464 1.67252838 -0.00700928 2.53413391 -0.01062012 C5.30758911 -0.01944227 8.08079009 -0.01358074 10.85424805 -0.00683594 C12.78940378 -0.00818384 14.72455917 -0.01012542 16.65971375 -0.01263428 C20.72597461 -0.01558734 24.79214776 -0.0112872 28.85839844 -0.00195312 C34.03491745 0.00935792 39.21122715 0.00293656 44.38773823 -0.00909805 C48.3918358 -0.01638352 52.3958852 -0.01399687 56.39998436 -0.00884247 C58.30589002 -0.00752 60.21180024 -0.00910376 62.11770058 -0.01380157 C83.01869101 -0.05396214 103.19772563 1.0174415 119.8034668 15.25878906 C120.78573242 16.07476563 120.78573242 16.07476563 121.7878418 16.90722656 C133.27546972 27.32742003 138.15433243 43.25735132 138.97143555 58.36425781 C139.08014883 75.51921342 135.30976107 90.1116324 123.8034668 103.25878906 C117.09980892 109.88209487 109.44671692 113.68227177 100.8034668 117.25878906 C101.55176758 118.82886719 101.55176758 118.82886719 102.31518555 120.43066406 C105.8099897 127.77973795 109.29187792 135.13371186 112.69799805 142.52441406 C117.50815434 152.95807896 122.34597882 163.36925292 127.3815918 173.69628906 C127.76947876 174.49188232 128.15736572 175.28747559 128.55700684 176.10717773 C130.47474742 180.03611955 132.39909745 183.96169913 134.33081055 187.88378906 C135.03527006 189.32127317 135.73969865 190.75877243 136.4440918 192.19628906 C136.76951965 192.85234131 137.09494751 193.50839355 137.43023682 194.18432617 C140.53671216 200.53757604 140.53671216 200.53757604 140.8034668 203.25878906 C137.73680469 206.32545117 134.1166355 205.60396644 129.9987793 205.62988281 C129.12325409 205.63891129 128.24772888 205.64793976 127.34567261 205.65724182 C125.49130686 205.67176405 123.63688964 205.68063595 121.7824707 205.68432617 C118.94614124 205.69621498 116.11199247 205.74537234 113.27612305 205.79589844 C111.47535243 205.80536332 109.67456843 205.81259804 107.8737793 205.81738281 C107.02574738 205.83691513 106.17771545 205.85644745 105.3039856 205.87657166 C99.46457276 205.83187755 99.46457276 205.83187755 96.4855957 203.24951172 C94.38960286 199.52296422 92.54718036 195.75813045 90.8190918 191.84863281 C90.44595856 191.02004761 90.07282532 190.1914624 89.68838501 189.33776855 C88.46979681 186.6269988 87.26160506 183.91173015 86.0534668 181.19628906 C85.2117935 179.31914285 84.36950179 177.44227381 83.52661133 175.56567383 C79.33625115 166.22444458 75.18261437 156.8668578 71.0300293 147.50878906 C70.65809448 146.67086319 70.28615967 145.83293732 69.9029541 144.96961975 C68.13621656 140.98791953 66.37298033 137.00474239 64.61694336 133.01831055 C64.29760834 132.2955896 63.97827332 131.57286865 63.64926147 130.82824707 C63.05460723 129.48240579 62.46174716 128.13576981 61.8710022 126.78820801 C60.67573979 123.80838461 60.67573979 123.80838461 58.8034668 121.25878906 C56.80381698 121.17120903 54.8011057 121.1518233 52.79956055 121.16113281 C51.58461914 121.16435547 50.36967773 121.16757812 49.11791992 121.17089844 C47.83852539 121.17927734 46.55913086 121.18765625 45.2409668 121.19628906 C43.31607422 121.20305664 43.31607422 121.20305664 41.35229492 121.20996094 C38.16930657 121.22179361 34.98640917 121.23827838 31.8034668 121.25878906 C31.79537994 122.2669014 31.78729309 123.27501373 31.77896118 124.31367493 C31.70154481 133.80476684 31.61381702 143.29571461 31.51593971 152.78661823 C31.4659504 157.66622882 31.41962062 162.54581748 31.3815918 167.42553711 C31.34477225 172.13294228 31.29842144 176.84016515 31.24540329 181.54741478 C31.2268416 183.34515377 31.21174023 185.14293186 31.20012283 186.94072914 C31.18329066 189.45489884 31.15426333 191.9686494 31.12231445 194.48266602 C31.12015427 195.22929001 31.11799408 195.975914 31.11576843 196.74516296 C31.05534989 200.45612067 30.91663764 202.0890328 28.8034668 205.25878906 C25.91852749 205.55038056 23.25158742 205.65469444 20.3659668 205.62207031 C19.53009033 205.62256882 18.69421387 205.62306732 17.83300781 205.62358093 C16.06434758 205.62123865 14.29568414 205.61150103 12.52709961 205.5949707 C9.81423247 205.57138267 7.10234785 205.57440773 4.3894043 205.58105469 C2.67325258 205.57547796 0.95710502 205.56836811 -0.7590332 205.55957031 C-1.9809436 205.56093742 -1.9809436 205.56093742 -3.22753906 205.56233215 C-8.96551162 205.48981064 -8.96551162 205.48981064 -11.1965332 203.25878906 C-11.39633313 200.60531681 -11.47017797 198.05585801 -11.45722961 195.40100098 C-11.46105516 194.57990923 -11.46488071 193.75881749 -11.46882218 192.91284418 C-11.47918765 190.14593362 -11.47515337 187.37922919 -11.47119141 184.61230469 C-11.47553589 182.63498237 -11.48071815 180.65766174 -11.48667908 178.68034363 C-11.50010786 173.29824915 -11.50064351 167.91622472 -11.49811578 162.53411674 C-11.49704881 158.04818162 -11.50192231 153.56226082 -11.5067212 149.07632875 C-11.51782954 138.49797787 -11.51824616 127.91966249 -11.51220703 117.34130859 C-11.50616321 106.41108406 -11.51848563 95.48098813 -11.5397771 84.55078554 C-11.55736116 75.18093177 -11.56339957 65.81111905 -11.56013936 56.44124937 C-11.55832144 50.83863043 -11.56101322 45.23610323 -11.5748539 39.63349915 C-11.58737597 34.36730049 -11.58554176 29.10130316 -11.57244301 23.8351078 C-11.57006546 21.89765163 -11.57285371 19.96018154 -11.58106613 18.02274132 C-11.59143613 15.38711539 -11.58351234 12.75217735 -11.570755 10.11657715 C-11.57812929 9.34168646 -11.58550357 8.56679578 -11.59310132 7.76842356 C-11.57126331 5.63838959 -11.57126331 5.63838959 -11.1965332 2.25878906 C-7.40661187 -0.26782516 -4.38967398 -0.02249307 0 0 Z M30.8034668 36.25878906 C30.8034668 53.41878906 30.8034668 70.57878906 30.8034668 88.25878906 C41.4150293 88.35160156 41.4150293 88.35160156 52.2409668 88.44628906 C54.45614014 88.47360107 56.67131348 88.50091309 58.95361328 88.52905273 C60.73559018 88.5378255 62.51757316 88.54546756 64.29956055 88.55175781 C65.65555359 88.57477966 65.65555359 88.57477966 67.03894043 88.5982666 C75.8859673 88.60186149 84.28837077 86.57940461 90.8034668 80.25878906 C96.60193271 72.71777899 97.80444478 65.69824425 96.8034668 56.25878906 C94.54495244 48.79724863 90.13085874 43.67505038 83.8034668 39.25878906 C77.32842172 35.86709878 70.16014075 36.11949952 63.0300293 36.16113281 C62.21042725 36.16213989 61.3908252 36.16314697 60.54638672 36.16418457 C57.50706569 36.16938648 54.46776473 36.18334759 51.4284668 36.19628906 C44.6222168 36.21691406 37.8159668 36.23753906 30.8034668 36.25878906 Z " fill="#85E9CE" transform="translate(1119.196533203125,636.7412109375)"/>
<path d="M0 0 C1.32975713 1.1257603 2.64380368 2.27047811 3.9375 3.4375 C4.535625 3.94410156 5.13375 4.45070313 5.75 4.97265625 C19.26657988 17.2522277 25.33716943 35.99743901 26.21966553 53.80419922 C26.36434791 58.44232374 26.35574002 63.07890257 26.3359375 67.71875 C26.33796686 69.42875288 26.34088538 71.13875491 26.34463501 72.84875488 C26.34901793 76.40527718 26.34275929 79.96157101 26.32861328 83.51806641 C26.31152384 88.02937265 26.32138697 92.54014305 26.33933067 97.05142975 C26.35027879 100.57436001 26.34667226 104.09716755 26.3389473 107.62010193 C26.33697558 109.28153042 26.33929516 110.94297084 26.34638596 112.60438538 C26.4236475 135.78166301 21.72307467 156.63733695 5.75 174.1875 C-11.93509615 190.60645763 -34.93287679 195.38197991 -58.36328125 194.78125 C-76.69070335 193.91979655 -92.35235844 187.78142116 -106.0625 175.4375 C-107.10664062 174.54998047 -107.10664062 174.54998047 -108.171875 173.64453125 C-119.45308909 163.39086961 -126.02202741 147.33031063 -128.0625 132.4375 C-128.16817865 129.62503436 -128.22963972 126.83637847 -128.23950195 124.02392578 C-128.24607315 123.20018967 -128.25264435 122.37645355 -128.25941467 121.52775574 C-128.27905357 118.81277351 -128.29079375 116.09784657 -128.30078125 113.3828125 C-128.30485678 112.44845242 -128.3089323 111.51409233 -128.31313133 110.5514183 C-128.33395934 105.59873429 -128.34827109 100.64607764 -128.35766602 95.69335938 C-128.36867986 90.61900714 -128.40303079 85.54509952 -128.44283772 80.4709034 C-128.4691995 76.53450806 -128.47737539 72.59821516 -128.48094749 68.66173935 C-128.48576882 66.79374082 -128.49725265 64.92574545 -128.51598549 63.05783463 C-128.71919866 41.43865055 -124.43048784 22.82794843 -109.7265625 6.125 C-81.67058151 -22.1778078 -31.35171883 -23.51378913 0 0 Z M-73.0625 27.4375 C-73.8875 27.97375 -74.7125 28.51 -75.5625 29.0625 C-82.06235813 35.23736523 -85.71608774 43.41047021 -86.32992554 52.31829834 C-86.34766866 53.74042937 -86.35480707 55.16272034 -86.35302734 56.58496094 C-86.35974457 57.36810669 -86.36646179 58.15125244 -86.37338257 58.95812988 C-86.39227216 61.52944406 -86.39628238 64.10049589 -86.3984375 66.671875 C-86.40487247 68.47397973 -86.41160134 70.27608344 -86.41860962 72.07818604 C-86.43056037 75.85065124 -86.43429279 79.62302503 -86.43310547 83.39550781 C-86.43290258 88.20469055 -86.46018306 93.01328035 -86.49464989 97.82232285 C-86.51700452 101.54407385 -86.52094037 105.26568419 -86.51988602 108.98749542 C-86.52222993 110.75913787 -86.53098447 112.53078492 -86.54655075 114.30236053 C-86.64517728 126.68769489 -86.01948328 137.62341393 -77.81640625 147.65625 C-70.62346242 154.96133326 -61.72904481 158.46884215 -51.5625 158.8125 C-40.83350467 158.46445079 -31.70306221 154.53284258 -24.3125 146.75 C-17.88772565 139.00506653 -15.95368444 130.02194426 -15.90136719 120.17553711 C-15.89640228 119.4625647 -15.89143738 118.74959229 -15.88632202 118.01501465 C-15.87176446 115.66494768 -15.86490705 113.31494834 -15.859375 110.96484375 C-15.85654762 110.15696474 -15.85372025 109.34908573 -15.85080719 108.51672554 C-15.83583583 104.23648886 -15.82659503 99.95628566 -15.82226562 95.67602539 C-15.81680216 91.28400419 -15.79281348 86.89229633 -15.76429367 82.50037289 C-15.74553553 79.09856822 -15.74045461 75.6968368 -15.73892975 72.29498482 C-15.73592935 70.6776821 -15.72799076 69.06037984 -15.71474457 67.44312859 C-15.60493088 52.99785915 -16.63264051 40.39095324 -26.94921875 29.43359375 C-34.72503181 22.11608009 -43.66733566 20.10574621 -54.1484375 20.21875 C-61.33611501 20.75830756 -67.34028322 23.04603131 -73.0625 27.4375 Z " fill="#81E6CD" transform="translate(1411.0625,650.5625)"/>
<path d="M0 0 C1.15252762 -0.00997513 2.30505524 -0.01995026 3.49250793 -0.03022766 C4.75806015 -0.03089233 6.02361237 -0.03155701 7.32751465 -0.03224182 C8.67283082 -0.03986263 10.01814263 -0.04829 11.3634491 -0.0574646 C15.01832338 -0.07942017 18.67311401 -0.0882095 22.3280468 -0.09329104 C24.61041637 -0.09693237 26.89276393 -0.10317115 29.17512512 -0.11029243 C37.13429734 -0.13478743 45.09340433 -0.14783961 53.0526123 -0.15138245 C60.47760942 -0.15502119 67.90219405 -0.18494022 75.32706499 -0.22678703 C81.69825937 -0.26143958 88.06931666 -0.27692998 94.44060469 -0.27762848 C98.24758838 -0.27842282 102.05415169 -0.28723288 105.86103821 -0.31562614 C109.43990998 -0.34172241 113.01801023 -0.3440605 116.59693336 -0.3279705 C118.539418 -0.32527958 120.48188705 -0.34739549 122.42424011 -0.37016296 C124.15303154 -0.3555175 124.15303154 -0.3555175 125.91674805 -0.34057617 C126.92037132 -0.3425875 127.9239946 -0.34459883 128.9580307 -0.3466711 C131.45837402 0.27415466 131.45837402 0.27415466 133.28145599 2.62615871 C134.68444111 5.78279224 134.8311784 8.07940339 134.82165527 11.52806091 C134.82068848 13.30406677 134.82068848 13.30406677 134.81970215 15.11595154 C134.80358887 16.34378357 134.78747559 17.5716156 134.77087402 18.83665466 C134.77409668 20.06835388 134.77731934 21.3000531 134.78063965 22.56907654 C134.72566667 31.73956938 134.72566667 31.73956938 132.45837402 36.27415466 C99.78837402 36.27415466 67.11837402 36.27415466 33.45837402 36.27415466 C33.78837402 51.78415466 34.11837402 67.29415466 34.45837402 83.27415466 C39.1273584 83.31153748 43.79634277 83.34892029 48.60681152 83.38743591 C51.55997388 83.41770247 54.51307497 83.44884147 57.46618652 83.48313904 C62.15625993 83.53752617 66.84621217 83.58863288 71.53649902 83.62059021 C75.31681423 83.64654921 79.09672406 83.68689773 82.87678909 83.73734093 C84.32086785 83.75406008 85.7650168 83.76554284 87.20917892 83.77176857 C89.22774023 83.78135407 91.24617583 83.81107794 93.26452637 83.84178162 C94.41480316 83.85288467 95.56507996 83.86398773 96.75021362 83.87542725 C97.64390656 84.00700729 98.53759949 84.13858734 99.45837402 84.27415466 C102.61715877 89.01233178 101.79224043 94.09654313 101.77404785 99.67088318 C101.77089013 101.70129688 101.79434577 103.73024942 101.81970215 105.76048279 C101.82034668 107.04245544 101.82099121 108.3244281 101.82165527 109.64524841 C101.82463623 110.82014832 101.82761719 111.99504822 101.83068848 113.20555115 C101.40932319 116.67843006 100.93322614 117.84473694 98.45837402 120.27415466 C95.62995911 120.75517273 95.62995911 120.75517273 92.15100098 120.72825623 C90.19931755 120.72780304 90.19931755 120.72780304 88.20820618 120.7273407 C86.78768301 120.70691398 85.36716606 120.68605 83.94665527 120.66477966 C82.49363482 120.65731836 81.0406043 120.6516249 79.58757019 120.64762878 C75.76504687 120.63236344 71.94313249 120.59307487 68.12084961 120.54881287 C63.53377619 120.50068088 58.94649903 120.48233033 54.3592453 120.45899963 C47.39186483 120.42022325 40.42582016 120.34357843 33.45837402 120.27415466 C33.78837402 136.11415466 34.11837402 151.95415466 34.45837402 168.27415466 C82.96837402 168.76915466 82.96837402 168.76915466 132.45837402 169.27415466 C134.52830471 173.41401604 134.70518276 175.17863857 134.68884277 179.68431091 C134.68690918 180.92116638 134.68497559 182.15802185 134.6829834 183.43235779 C134.6707373 184.72077576 134.65849121 186.00919373 134.64587402 187.33665466 C134.64490723 189.2750824 134.64490723 189.2750824 134.6439209 191.25267029 C134.59885021 200.85272609 134.59885021 200.85272609 133.45837402 204.27415466 C130.84320075 205.5817413 128.92204188 205.40302171 125.99230957 205.40786743 C124.8312973 205.41213242 123.67028503 205.4163974 122.47409058 205.42079163 C120.55398666 205.42011185 120.55398666 205.42011185 118.59509277 205.41941833 C117.23845324 205.42240924 115.88181456 205.42581161 114.525177 205.42959595 C110.83519165 205.43844609 107.14522947 205.44077446 103.45523453 205.44141173 C100.37848381 205.4423599 97.30173852 205.44603704 94.22498989 205.44958383 C86.96912296 205.45773187 79.71326844 205.4601677 72.45739746 205.4594574 C64.96268226 205.45885616 57.46803894 205.46941627 49.97334194 205.48520106 C43.54614389 205.49825715 37.11896938 205.50364213 30.69175816 205.50300199 C26.84972675 205.50274648 23.00775921 205.50562694 19.16574097 205.51618004 C15.55425423 205.52582889 11.94289287 205.52596248 8.33140182 205.51866341 C6.36848091 205.5171116 4.40556009 205.52548625 2.44265747 205.53410339 C1.2816452 205.52990891 0.12063293 205.52571442 -1.07556152 205.52139282 C-2.59538887 205.52220997 -2.59538887 205.52220997 -4.1459198 205.52304363 C-6.54162598 205.27415466 -6.54162598 205.27415466 -8.54162598 203.27415466 C-8.7414259 200.62068241 -8.81527075 198.07122361 -8.80232239 195.41636658 C-8.80614793 194.59527483 -8.80997348 193.77418309 -8.81391495 192.92820978 C-8.82428042 190.16129922 -8.82024614 187.3945948 -8.81628418 184.62767029 C-8.82062866 182.65034797 -8.82581092 180.67302734 -8.83177185 178.69570923 C-8.84520064 173.31361475 -8.84573628 167.93159032 -8.84320855 162.54948235 C-8.84214159 158.06354722 -8.84701508 153.57762642 -8.85181397 149.09169436 C-8.86292232 138.51334347 -8.86333894 127.93502809 -8.8572998 117.35667419 C-8.85125598 106.42644966 -8.8635784 95.49635373 -8.88486987 84.56615114 C-8.90245393 75.19629737 -8.90849235 65.82648465 -8.90523213 56.45661497 C-8.90341421 50.85399603 -8.906106 45.25146883 -8.91994667 39.64886475 C-8.93246874 34.38266609 -8.93063453 29.11666876 -8.91753578 23.8504734 C-8.91515823 21.91301724 -8.91794648 19.97554714 -8.92615891 18.03810692 C-8.9365289 15.40248099 -8.92860512 12.76754295 -8.91584778 10.13194275 C-8.92322206 9.35705206 -8.93059635 8.58216138 -8.9381941 7.78378916 C-8.91635609 5.65375519 -8.91635609 5.65375519 -8.54162598 2.27415466 C-5.1510051 0.01374075 -3.97621952 0.01842468 0 0 Z " fill="#7FE5CA" transform="translate(707.5416259765625,636.7258453369141)"/>
</svg>
